<?xml version="1.0" encoding="utf-8"?>
<!-- Generator: Adobe Illustrator 24.0.1, SVG Export Plug-In . SVG Version: 6.00 Build 0)  -->
<svg version="1.1" id="Layer_1" xmlns="http://www.w3.org/2000/svg" xmlns:xlink="http://www.w3.org/1999/xlink" x="0px" y="0px"
	 viewBox="0 0 546.4 180" style="enable-background:new 0 0 546.4 180;" xml:space="preserve">
<style type="text/css">
	.st0{fill:#FFFFFF;}
	.st1{fill:#B19672;}
</style>
<title>GIA_Logo_WEB</title>
<g id="Layer_5">
	<path class="st0" d="M536.3,50.2c-5.6,0-10.1-4.5-10.1-10.1c0-5.6,4.5-10.1,10.1-10.1s10.1,4.5,10.1,10.1c0,0,0,0,0,0.1
		c0,5.5-4.5,10-10,10C536.4,50.2,536.4,50.2,536.3,50.2z M536.3,30.9c-5.1,0-9.2,4.1-9.1,9.2s4.1,9.2,9.2,9.1c5,0,9.1-4.1,9.1-9.1
		c0-5.1-4-9.2-9.1-9.2C536.4,30.9,536.4,30.9,536.3,30.9z M536.2,33.6c1-0.1,2,0,3,0.3c1.2,0.5,2,1.6,2,2.9c0,1.5-1.1,2.8-2.6,3
		c1.2,0.5,1.6,1.3,1.8,2.7c0.1,1.3,0.5,2.6,1,3.8h-2.6c-0.4-0.9-0.6-1.8-0.7-2.8c-0.4-2.7-0.6-2.9-3.8-2.9v5.7h-2.3V33.6H536.2z
		 M534.4,38.8h1.9c1,0,2.7,0,2.7-1.8c0-0.6-0.3-1.2-0.9-1.5c-0.7-0.2-1.5-0.2-2.2-0.2h-1.4V38.8z"/>
	<path d="M510.6,145.5c-0.6-1.8-1.4-4.1-1.4-4.1L497,108.8c-0.2-0.7-0.8-1.1-1.5-1.1h-34.2c-0.6,0-1.1,0.4-1.4,1.2l-8.3,22
		c-1.3,3-2.1,6.1-2.3,9.4c-0.1,1.3,0.4,2.6,1.4,3.5c0.9,0.8,2.5,1.2,4.8,1.2h2.3c1.5,0,2.3,0.4,2.3,1.2c0,1-0.9,1.5-2.6,1.5
		c-1.9,0-4.7-0.1-8.3-0.1c-4-0.2-6.7-0.3-8-0.3c-0.3,0-1.4,0-3.4,0.1c-1.5,0-3.7,0.1-6.5,0.2s-5.5,0.1-8.2,0.1c-2,0-2.9-0.5-2.9-1.5
		c0-0.8,0.6-1.2,1.8-1.2c1.6,0,3.2-0.1,4.8-0.3c3-0.3,5.7-1.7,7.7-3.9c2.3-3,4.1-6.3,5.4-9.9l38.5-96.4c0.6-1.7,1.4-3.3,2.3-4.8
		c0.4-0.7,1.2-1.2,2-1.3c1.1,0,2.4,1.6,3.8,4.9c0.7,1.5,2.3,5.3,4.6,11.2l9.2,23.2l14.7,36.5l4.1,10.1l5.5,13.4
		c2.6,6.1,4.9,10.3,7.1,12.6c1.7,2,3.9,3.4,6.5,4.1c2.1,0.4,4.3,0.6,6.5,0.6c1.3,0,2,0.4,2,1.2c0,0.6-0.5,1-1.4,1.2
		c-1.9,0.3-3.8,0.4-5.7,0.3l-14.7-0.3c-4.3,0-8.7,0.3-12,0.3C511.8,147.8,511.3,147.3,510.6,145.5z M464.3,100.1h28.2
		c0.5,0,0.8-0.3,0.8-0.9l-13.8-37.9v-0.2c-0.2-0.8-0.5-1.2-0.8-1.2s-0.7,0.5-0.9,1.4L463.7,99C463.7,99.7,463.9,100.1,464.3,100.1z"
		/>
	<path d="M322.6,89.4c0,0.4-0.1,10.8-0.1,10.8c-0.1,3.1-0.1,11.4-0.1,20.5v16.8c0.1,1.3,0,2.6-0.3,3.9c-0.4,0.7-1,1.3-1.7,1.6
		c-5.3,2.6-11,4.3-16.8,5.2c-6.6,1.1-13.3,1.7-20.1,1.7c-9.2,0.1-18.4-1.1-27.3-3.5c-8.1-2.2-15.7-5.9-22.5-10.9
		c-6.6-4.9-11.9-11.4-15.4-18.8c-3.7-7.6-5.6-16.6-5.6-26.8c0-11.4,2.5-21.5,7.6-30.2c4.6-8.2,11.1-15,19.1-19.9
		c6.1-3.8,12.8-6.5,19.8-8c7.1-1.4,14.2-2.1,21.4-2c2.6,0,5.2,0.1,7.8,0.2s5.4,0.4,8.3,0.7s5.2,0.6,7,0.8c1.3,0.2,2.7,0.4,4,0.7
		c2,0.4,4.2,0.8,6.4,1.1s4.1,0.5,5.7,0.6s2.2,0.8,2.2,1.9c0,0.6-0.1,1.1-0.1,1.7c-0.2,2.3-0.4,5.1-0.6,8.5s-0.3,8.4-0.3,14.9
		c0,2.1-0.6,3.2-1.7,3.2c-0.8,0-1.3-0.7-1.5-2c-0.3-2.3-0.8-4.6-1.5-6.8c-0.8-2.2-2-4.2-3.7-5.9c-2.8-3-7.2-5.7-13.2-8.2
		c-6.6-2.6-13.7-3.9-20.9-3.8c-5.3,0-10.6,0.6-15.8,1.8c-5.4,1.4-10.4,4-14.6,7.7c-4.6,4-8.2,9.1-10.4,14.8
		c-2.4,6.1-3.7,13.6-3.7,22.7c-0.1,7.8,1.2,15.5,3.8,22.8c2.3,6.8,6,13,10.8,18.4c4.7,5.2,10.5,9.3,16.9,12.1
		c6.9,2.9,14.3,4.4,21.8,4.3c2.9,0,5.3-0.1,7.4-0.3c1.9-0.2,3.8-0.6,5.6-1.4c1.9-0.9,2.9-2.8,2.9-5.7v-14.4c0-9,0-17.2-0.1-20.2
		c0.1-2.1-0.5-4.2-1.5-6c-0.9-1.3-2.6-2.3-5.1-2.8c-2-0.4-4-0.5-6-0.5c-1.5,0-2.3-0.4-2.3-1.2c0-1,1.1-1.5,3.2-1.5
		c2.8,0,7.4,0.1,13.9,0.3c4.5,0.1,7.3,0.2,8.3,0.2s3.9-0.1,8-0.3c0.5-0.1,1.1,0.3,1.1,0.8C322.6,89.3,322.7,89.4,322.6,89.4z"/>
	<path d="M370.6,103.5V52.9c0-3.4-0.1-6.3-0.3-8.9c-0.3-5-2-7.9-5.2-8.6c-1.8-0.4-3.7-0.6-5.5-0.6c-1.6,0-2.5-0.5-2.5-1.5
		c0-0.8,1.2-1.2,3.7-1.2c1.9,0,5.7,0.1,11.2,0.3c4.3,0.1,7.2,0.2,8.7,0.2c1.2,0,3.7,0,7.5-0.2c5.3-0.2,9-0.3,11.2-0.3
		s3.2,0.4,3.2,1.2c0,1-0.8,1.5-2.5,1.5c-1.5,0-3.1,0.2-4.6,0.5c-1.7,0.2-3.3,1.2-4.2,2.6c-0.9,1.9-1.4,4-1.5,6.1
		c-0.2,2.6-0.3,5.5-0.3,8.9v50.5c0,9.5,0,16.7,0.1,21.7c0.1,5,0.2,8.9,0.5,11.9c0.1,1.9,0.7,3.7,1.7,5.3c0.8,1.2,2.3,1.9,4.4,2.2
		c1.1,0.1,2.4,0.2,3.8,0.4c1.3,0.1,2.7,0.2,4,0.2c1.6,0,2.5,0.4,2.5,1.2c0,1-1,1.5-2.9,1.5c-4.3,0-9.9-0.1-16.8-0.3
		c-3.3-0.1-5.6-0.1-7-0.1c-0.8,0-3.2,0.1-7.2,0.1c-5.9,0.2-9.9,0.3-12.1,0.3c-2,0-3.1-0.5-3.1-1.5c0-0.8,0.8-1.2,2.5-1.2
		c1.9,0,3.7-0.2,5.5-0.6c2.4-0.5,3.9-3.1,4.4-7.6c0.3-3,0.5-6.9,0.6-11.9C370.6,120,370.7,112.9,370.6,103.5z"/>
	<path class="st1" d="M167.9,96.4c3.8-1.2,12.2-3.9,12.2-3.9l-11.9-4.7l11.7-5.3l-12.4-3.3c3.4-2.1,11-6.4,11-6.4l-12.6-2.1
		l10.1-7.7l-12.7-0.5l9.3-8.8l-12.7,0.9c2.6-3,5.6-6.7,8.3-9.6l-12.6,2.2l7.1-10.6l-12.2,3.7c1.8-3.5,5.9-11.4,5.9-11.4l-11.2,4.4
		l4.1-11.3l-11.1,6.2c1-3.8,2.4-8.4,3.4-12.3L131,23.3c0,0,1.3-8.8,1.9-12.6l-9.5,8.5l0.6-12.8l-0.6,0.8c-2.6,2.9-5.2,6.1-8,8.7
		l-0.8-12.6l-7.5,10.3c-0.7-3.9-1.6-8.5-2.1-12.5l-6.4,11L95.2,0l-5,11.6L85.3,0l-3.7,12.1L75.5,1l-2.3,12.4L65.8,3.2l-1,12.6
		l-8.4-9.5l0.4,12.7l-9.5-8.4l1.8,12.5L39,15.7l3.1,12.3l-11-6.3l4.6,11.9l-11.7-5L29.8,40l-12.1-3.7l7.1,10.5l-12.5-2.3l8.1,9.8
		l-12.6-1l9.1,8.9L4.2,62.6l10.1,7.9L1.7,72.3l10.9,6.6C8.9,80,4.1,81,0.3,82.1l11.5,5.2C8.1,88.9,0,92.1,0,92.1s8.6,2.6,12.1,4
		L0.8,102l12.5,2.7c-3.3,2.2-10.7,7.1-10.7,7.1l12.8,1.3c-2.9,2.6-9.9,8.3-9.9,8.3l12.9-0.1l-8.9,9.2l12.7-1.6
		c-2.4,3.1-7.8,10.2-7.8,10.2L27,136l-6.7,10.9l12.2-4.2L27,154.2c0,0,8.1-4.1,11.6-5.5l-4.1,12.2l10.8-6.8l-2.6,12.5l9.9-7.9
		l-1.2,12.6l9.2-9.2L60.5,175c0,0,5.6-7.2,8.1-10c0.5,3.9,1.6,12.8,1.6,12.8l6.8-10.9l2.8,12.6l0.6-1l5.3-10.7l4.2,12.3l4.4-11.9
		l5.5,11.4l3-12.6c0,0,4.8,7.6,6.8,11l1.6-12.9c0,0,5.4,7.1,8,10.1l0.3-12.5l8.8,8.7l-1-12.5l9.8,7.9c-0.8-3.6-2.6-12.7-2.6-12.7
		c3.3,2.3,7.5,4.8,10.8,7l-4-12.2l11.5,5.7c0,0-3.9-8.1-5.4-11.7c3.5,1.3,8.5,3,12,4.5c0.4,0.3-6.3-11.1-6.3-11.1l12.2,3l-7.5-10.2
		l12.5,1.7l-8.9-9.4l12.9,0.3l-9.8-8.3l12.8-1.2l-10.6-7.2l12.5-2.4L167.9,96.4z M176.8,92L160,91.4l7.5-3
		C170.6,89.6,173.7,90.8,176.8,92L176.8,92z M157,108l6.2,4.8l-7.9,0.6C155.3,113.3,156.5,109.7,157,108z M154,63l7.9,0.1
		c-2,1.8-3.8,3.6-6,5.2L154,63z M156.5,70l7.8,1.2c-2.3,1.5-4.1,3.1-6.4,4.5L156.5,70z M158.6,100.4l6.9,4.3l-8,1.3L158.6,100.4z
		 M158.3,77.6l7.5,2l-6.6,3.6L158.3,77.6z M159.3,92.9l7.4,3.4c-2.5,0.8-5.2,1.4-7.8,2.2L159.3,92.9z M159.2,85.2l7.6,2.7
		c-2.4,1-5,2.1-7.5,3.1L159.2,85.2z M176.4,82.4l-16.6,1.3l7.1-3.8L176.4,82.4z M175,73.1l-16.3,3l6.6-4.6L175,73.1z M172.7,63.8
		l-15.8,4.8l6.1-5.3L172.7,63.8z M169.4,54.8L154,61.4l5.5-6.1L169.4,54.8z M153.2,61.2l-2.6-5.1c2.7-0.3,7.8-0.8,7.8-0.8
		S155,59.1,153.2,61.2z M164.8,46.3l-14.6,8.4l4.7-6.7C158.1,47.5,161.6,46.9,164.8,46.3z M149.5,54.3l-3.2-5l7.5-1.1L149.5,54.3z
		 M159.8,38.3L146.3,48l4.1-7C153.6,40.1,156.7,39.3,159.8,38.3z M145.4,48h-0.2l-3.5-4.4l7.7-2.6L145.4,48z M153.6,30.9l-12.2,11.3
		l3.4-7.8L153.6,30.9z M140.4,42.3l-4.1-4c2.4-1.3,4.9-2.4,7.5-3.5L140.4,42.3z M138.3,29.1l8.6-4.9l-11.1,12.6L138.3,29.1z M135,37
		l-4.5-3.4l6.9-4.3C136.7,31.8,135.7,34.4,135,37z M131.4,24l7.9-5.6l-9.5,13.7L131.4,24z M128.9,32.3c-1.6-0.8-3.2-2-4.9-2.9
		l6.4-5.1C129.9,27,129.4,29.7,128.9,32.3L128.9,32.3z M123.8,20l7.3-6.6l-8,14.6L123.8,20z M116,16.6l6.5-7.3l-6.4,15.4
		C116.1,22.3,116,19.4,116,16.6z M123,20.4l-0.7,8.1l-5.1-2.4L123,20.4z M115.2,17.1l0.2,8.2l-5.4-1.8v-0.3L115.2,17.1z M113.4,6.3
		l-4.6,16l-1-8.1L113.4,6.3z M107,14.8l1.1,8.1l-5.7-1.2L107,14.8z M104.1,4.6l-2.8,16.1l-1.9-7.7L104.1,4.6z M98.6,13.4l2.1,8
		l-5.8-0.6L98.6,13.4z M94.7,3.2l-1,16.7l-2.9-7.4L94.7,3.2z M90.2,13.3c0,0,2,4.7,2.8,7.4l-5.7-0.1L90.2,13.3z M85.1,3.2l0.9,16.6
		l-3.6-7.2L85.1,3.2z M81.7,13.4l3.7,7.4l-5.8,0.6L81.7,13.4z M75.6,4.3c0,0,1.8,11,2.6,16.5l-4.3-6.8L75.6,4.3z M73.4,14.7l4.5,6.9
		l-5.6,1.3L73.4,14.7z M66.2,6.4l4.5,15.9l-5.1-6L66.2,6.4z M65.4,17.5l5,5.9c-1.7,0.7-3.6,1.3-5.4,2L65.4,17.5z M63.4,24.9
		l-5.8-5.3L57.2,9.5L63.4,24.9z M63.3,26l-5.3,2.4l-0.5-7.8L63.3,26z M20.9,90.6c-2.5-0.8-5.1-2-7.6-3c2.5-1,5.2-1.8,7.8-2.7
		C20.8,86.8,20.8,88.7,20.9,90.6z M21.3,98.3L13.4,96c0,0,5-2.3,7.5-3.4L21.3,98.3z M13.9,79.1l8-1.8l-0.7,5.6L13.9,79.1z
		 M21.6,100.1l1.1,5.7l-8.1-1.4L21.6,100.1z M15.6,70.8c2.7-0.4,5.5-0.6,8.2-0.9l-1.5,5.6L15.6,70.8z M23,107.6
		c0.6,1.7,1.1,3.6,1.8,5.4l-8.1-0.4L23,107.6z M24.1,68.3l-5.5-5.2l7.7-0.3L24.1,68.3z M50.1,24.5l6.5,4.8l-5.2,3.1L50.1,24.5z
		 M50.1,33.3l-4.7,3.6l-2.2-7.4L50.1,33.3z M48.6,13.6l7.9,14.6L50,23.5L48.6,13.6z M40.5,18.6l9.4,13.7L43,28.4L40.5,18.6z
		 M33,24.5l10.8,12.7l-7.2-3.3L33,24.5z M44.2,38l-4.3,4.1l-3-7.2L44.2,38z M26.1,31.2c4,3.9,8.2,7.5,12.2,11.4l-7.5-2.3L26.1,31.2z
		 M38.6,43.5c-1.2,1.5-2.5,3-3.7,4.5l-3.7-6.7L38.6,43.5z M20,38.5c4.5,3.4,9,6.6,13.4,10l-7.8-1.7L20,38.5z M33.8,49.4l-3.1,4.8
		l-0.1,0.2L26,47.8L33.8,49.4z M14.9,46.6L29.3,55l-7.8-0.6L14.9,46.6z M29.7,55.8L27.1,61l-5.2-5.7L29.7,55.8z M10.7,55.1
		c5.1,2.2,9.9,4.5,15,6.7l-7.9,0.3L10.7,55.1z M7.2,64.1l15.9,5.1L15,70L7.2,64.1z M4.8,73.3l16.4,3.3l-8,1.7L4.8,73.3z M3.6,82.8
		l16.6,1.5l-7.7,2.6L3.6,82.8z M3.3,92.3L20,92l-7.3,3.3L3.3,92.3z M4.2,101.9l16.4-2.3l-6.8,4.2L4.2,101.9z M6,111.3l16.1-4
		l-6.4,4.9L6,111.3z M8.9,120.4l15.6-5.8l-5.7,5.6L8.9,120.4z M25.4,114.8l2.3,5.3l-8.1,0.3L25.4,114.8z M12.7,129.1l14.8-7.5
		l-5.1,6.2L12.7,129.1z M28.5,121.9c1,1.5,2,3.3,2.9,4.9l-8.1,1.4L28.5,121.9z M17.6,137.4l13.8-9l-4.4,6.8L17.6,137.4z M32.5,128.5
		l3.4,4.5l-7.8,2L32.5,128.5z M23.2,145.1l13-10.5l-3.6,7.2L23.2,145.1z M37.1,134.5l3.9,4.1l-7.3,2.9L37.1,134.5z M38.6,147.6
		l-8.8,4.2l11.6-11.7L38.6,147.6z M42.3,140.1l4.3,3.7l-7,3.5L42.3,140.1z M45.1,153.1l-8.3,5.2l10.3-13.1L45.1,153.1z M48.1,145
		l4.6,3.3l-6.6,4.4L48.1,145z M52.6,157.7l-7.8,6.1l8.8-14.3L52.6,157.7z M54.4,149.3l5,2.7l-6.1,5.3L54.4,149.3z M53.2,168.3
		l7.1-15l0.1,7.8L53.2,168.3z M61.8,172l5.7-15.8c0.3,2.7,0.9,7.8,0.9,7.8L61.8,172z M61.2,160.6l0.1-7.7l5.1,2.1L61.2,160.6z
		 M69.2,163.2l-0.9-7.5l5.4,1.5L69.2,163.2z M71.2,174.6l3.8-16.5l1.6,7.7L71.2,174.6z M77.2,165l-1.6-7.3l5.5,0.9L77.2,165z
		 M80.6,176.1l2-16.6l2.3,7.7L80.6,176.1z M85.6,166.5l-2.4-7.6l5.8,0.3L85.6,166.5z M90.3,176.6l0.1-16.7l3.2,7.6L90.3,176.6z
		 M94.2,166.6c0,0-2-5-3.3-7.4l5.7-0.3L94.2,166.6z M99.8,176L98,159.4l4,7L99.8,176z M102.6,165.6l-4-6.9l5.6-1L102.6,165.6z
		 M109.2,174.4l-3.6-16.4l4.8,6.6L109.2,174.4z M110.9,163.8l-4.8-6.5l5.4-1.5L110.9,163.8z M118.4,171.7l-5.3-15.7l5.6,6.1
		L118.4,171.7z M113.4,155.1l5.1-2.1l0.1,7.8L113.4,155.1z M90,154.9c-35.8,0-64.8-29.1-64.8-64.9s29.1-64.8,64.9-64.8
		c35.8,0,64.8,29.1,64.8,64.9C154.9,125.8,125.9,154.9,90,154.9C90,154.9,90,154.9,90,154.9z M160.1,120.7l-7.8-0.4l2.3-5.1
		L160.1,120.7z M156.3,128.1l-7.7-1.1c1.2-2,2.8-4.9,2.8-4.9L156.3,128.1z M151.8,135.2l-7.7-2l3.3-4.5L151.8,135.2z M146.5,142
		l-7.4-3l3.7-4.2L146.5,142z M137.5,140.4l2.9,7.5l-7-3.9L137.5,140.4z M131.7,145.3l2,7.8l-6.6-4.5L131.7,145.3z M126.4,157.4
		l-6-5.2l4.9-2.6L126.4,157.4z M127.4,168.5l-7.2-15.5l6.3,5.6L127.4,168.5z M135.6,163.6l-8.6-14.3l6.5,4.5L135.6,163.6z
		 M143.5,158.2l-10.2-13.3l7.1,4L143.5,158.2z M150.8,151.9l-11.6-12l7.4,3.1L150.8,151.9z M157.3,144.8l-13-10.7l7.9,2.1
		L157.3,144.8z M162.8,137.1l-14-9.2l8,1.1L162.8,137.1z M167.5,128.8l-14.8-7.6l7.8,0.3L167.5,128.8z M171.4,120l-15.6-5.9l7.9-0.7
		L171.4,120z M174.4,111l-16.4-4.3l8.1-1.3L174.4,111z M159.4,99.1l7.8-2.1l8.7,4.6L159.4,99.1z M78,107.3h7.3v-0.3l-3-2.2L78,107.3
		z M75.5,117.5v-9h-4.3L75.5,117.5z M81,104.3h-9.4l4.4,2.9L81,104.3z M82.5,108.4l-4.2,8l7-7.6v-0.4L82.5,108.4z M76.5,108.4v9.2
		l4.9-9.2H76.5z M69.9,108.4h-2.9v0.4l6.7,7.5L69.9,108.4z M74.2,107.3l-4-2.6l-3.1,2.3v0.3L74.2,107.3z M99.7,114.3l-1.8,1.2
		l-2.4-2l0.9-1.9L99.7,114.3z M101.5,110.2l1.6-1.9l0.7,0.6l0.5-0.6c-0.3-0.9-1-1.6-2.2-2.4l-0.2-0.2l-0.8,0.9l0.7,0.6l-1.6,1.9
		L101.5,110.2z M108.5,102.2l-1.5-1.4l-1.5,1.8l-0.6-0.5l-0.7,0.8l0,0c1,0.7,1.8,1.4,2.6,2.3l0.8-0.9l-0.6-0.5L108.5,102.2z
		 M107.2,108.5c0-0.1,0-0.2,0-0.3c0-0.1,0-0.1,0-0.2c0-0.1,0-0.2-0.1-0.3v-0.1l-0.1-0.4v-0.1c0-0.1-0.1-0.2-0.2-0.4l0,0
		c0,0-0.1-0.3-0.2-0.4l0,0c-0.1-0.1-0.1-0.2-0.2-0.3c-0.7-0.9-1.6-1.7-2.5-2.3h-0.1l-0.6-0.5l-1.3,1.6c0.2,0.2,0.4,0.3,0.6,0.4
		l0.2,0.1c1,0.6,1.8,1.4,2.3,2.4l0,0c0.1,0.2,0.2,0.4,0.2,0.6l0.1,0.3c0,0.1,0,0.2,0,0.2c0,0.2,0,0.4,0,0.6c-0.2,2-1.4,3.7-3.2,3.6
		l-4.5-3.8l-1.1,1.3l4.6,3.9l0,0l-0.8,2.3h4.5l-0.4-2.1c1.7-1.1,2.8-2.9,2.9-5c0-0.2,0-0.4,0-0.6c0-0.1,0-0.2,0-0.2
		C107.3,108.7,107.3,108.6,107.2,108.5L107.2,108.5z M96,117.4l-0.7,1.8h11.2l-0.4-1.8H96z M54.3,127.4l1.3,1.1l-0.7,3.8l1.5-0.3
		l1.4-1.7l1.1,0.9l-4.7,5.7l-1.1-0.9l2.1-2.5l-4.1,0.8l-1.4-1.1l3.8-0.7L54.3,127.4z M48.5,120.7l0.8,1l-1.6,5.3l3.5-3l0.9,1.1
		l-5.8,4.8l-0.8-1l1.6-5.2l-3.5,2.9l-0.9-1.1L48.5,120.7z M40.5,114.8l0.8-0.4c0.2-0.1,0.5-0.2,0.7-0.3c0.2-0.1,0.5-0.1,0.7-0.2
		c0.2,0,0.5,0,0.7,0.1c0.4,0.1,0.7,0.3,1,0.5c0.3,0.2,0.6,0.5,0.7,0.9c0.2,0.3,0.3,0.7,0.4,1.1c0,0.4,0,0.7-0.1,1.1
		c-0.1,0.2-0.2,0.5-0.3,0.7c-0.1,0.2-0.3,0.4-0.5,0.5c-0.2,0.2-0.4,0.3-0.7,0.5l-0.8,0.4l-0.8,0.4c-0.2,0.1-0.5,0.2-0.7,0.3
		c-0.2,0.1-0.5,0.1-0.7,0.2c-0.2,0-0.5,0-0.7-0.1c-0.4-0.1-0.7-0.3-1-0.5c-0.3-0.2-0.6-0.5-0.8-0.9c-0.2-0.3-0.3-0.7-0.4-1.1
		c0-0.4,0-0.7,0.1-1.1c0.1-0.2,0.2-0.5,0.3-0.7c0.1-0.2,0.3-0.4,0.5-0.5c0.2-0.2,0.4-0.3,0.7-0.5L40.5,114.8z M41.2,116.1
		c-0.3,0.2-0.6,0.3-0.8,0.4c-0.2,0.1-0.3,0.2-0.5,0.3c-0.1,0.1-0.2,0.2-0.3,0.3c-0.1,0.1-0.1,0.2-0.1,0.3c-0.1,0.2-0.1,0.3,0,0.5
		c0,0.2,0.1,0.4,0.2,0.5c0.1,0.2,0.2,0.3,0.4,0.4c0.1,0.1,0.3,0.2,0.5,0.2c0.1,0,0.2,0,0.3,0c0.1,0,0.3,0,0.4-0.1
		c0.2-0.1,0.4-0.1,0.5-0.2l0.8-0.4c0.3-0.2,0.6-0.3,0.8-0.4s0.3-0.2,0.5-0.3c0.1-0.1,0.2-0.2,0.3-0.3c0.1-0.1,0.1-0.2,0.1-0.3
		c0.1-0.2,0.1-0.3,0.1-0.5c0-0.2-0.1-0.4-0.2-0.5c-0.1-0.2-0.2-0.3-0.4-0.4c-0.1-0.1-0.3-0.2-0.5-0.2c-0.1,0-0.2,0-0.3,0
		c-0.1,0-0.3,0-0.4,0.1c-0.2,0.1-0.4,0.1-0.5,0.2L41.2,116.1z M32.4,104.2l7.7-0.4l0.4,1.2l-3.9,2.7l4.7-0.1l0.4,1.2l-6.5,4.2
		l-0.5-1.4l4.2-2.5l-4.9,0.2l-0.3-1l4-2.8l-4.8,0.4L32.4,104.2z M38.4,93.9l0.6,4.8l-7.4,0.9l-0.2-1.4l6.1-0.8l-0.4-3.4L38.4,93.9z
		 M38.4,85.7l-0.2,4.9l-7.5-0.2l0.2-4.9l1.3,0.1l0,3.5H34l0.1-3l1.3,0.1L35.3,89l1.8,0.1l0.1-3.5L38.4,85.7z M36.3,76.2l0.8,0.2
		c0.3,0,0.5,0.1,0.8,0.2c0.2,0.1,0.5,0.2,0.7,0.4c0.2,0.2,0.4,0.4,0.6,0.6c0.2,0.3,0.3,0.6,0.3,1c0.1,0.4,0.1,0.7,0,1.1L39,82.3
		l-7.3-1.5l0.5-2.7c0.1-0.4,0.2-0.7,0.4-1c0.2-0.3,0.4-0.6,0.7-0.8c0.2-0.2,0.4-0.3,0.7-0.4c0.2-0.1,0.5-0.1,0.8-0.1
		c0.3,0,0.5,0,0.8,0.1L36.3,76.2z M36.1,77.6l-0.7-0.1c-0.2,0-0.4-0.1-0.5-0.1c-0.1,0-0.3,0-0.4,0c-0.1,0-0.2,0.1-0.3,0.1
		c-0.2,0.1-0.3,0.2-0.4,0.4c-0.1,0.2-0.2,0.4-0.2,0.6l-0.2,1.1l4.8,1l0.2-1.1c0-0.2,0-0.4,0-0.7c0-0.2-0.1-0.4-0.3-0.5
		c-0.2-0.2-0.4-0.3-0.6-0.4C36.9,77.8,36.5,77.7,36.1,77.6z M40.2,67.4c0.4,0.2,0.8,0.4,1.2,0.6c0.3,0.2,0.5,0.5,0.7,0.9
		c0.2,0.4,0.3,0.8,0.3,1.2c0,0.4-0.1,0.8-0.2,1.1c-0.3,0.7-0.8,1.3-1.5,1.6c-0.2,0.1-0.5,0.2-0.7,0.2c-0.2,0-0.5,0-0.7,0
		c-0.3-0.1-0.5-0.1-0.8-0.2c-0.3-0.1-0.5-0.2-0.8-0.3L36.7,72c-0.2-0.1-0.5-0.2-0.7-0.4c-0.2-0.1-0.4-0.3-0.6-0.4
		c-0.2-0.2-0.3-0.4-0.4-0.6c-0.1-0.3-0.2-0.7-0.2-1c0-0.4,0.1-0.8,0.2-1.1c0.1-0.4,0.3-0.7,0.6-1c0.2-0.2,0.5-0.4,0.8-0.6
		c0.3-0.1,0.6-0.2,0.9-0.2c0.3,0,0.6,0,1,0.1L37.7,68c-0.3-0.1-0.6,0-0.9,0.1c-0.3,0.2-0.5,0.4-0.6,0.7c-0.1,0.2-0.1,0.4-0.1,0.6
		c0,0.2,0.1,0.3,0.1,0.5c0,0.1,0.1,0.2,0.2,0.3c0.1,0.1,0.2,0.2,0.3,0.2c0.2,0.1,0.3,0.2,0.5,0.3l0.8,0.3c0.3,0.1,0.6,0.2,0.8,0.3
		c0.2,0.1,0.4,0.1,0.6,0.2c0.1,0,0.3,0,0.4,0c0.1,0,0.2,0,0.3-0.1c0.2-0.1,0.3-0.1,0.4-0.3c0.1-0.1,0.2-0.3,0.3-0.5
		c0.1-0.2,0.1-0.4,0.1-0.6c0-0.2,0-0.4-0.1-0.5c-0.1-0.2-0.2-0.3-0.3-0.4c-0.1-0.1-0.3-0.2-0.5-0.3l-0.3-0.1L39.3,70l-1.1-0.4l1-2.6
		L40.2,67.4z M47.2,61.2l-2.5,4.2l-6.4-3.9l2.5-4.2l1.1,0.7l-1.8,3l1.5,0.9l1.5-2.5l1.1,0.7l-1.5,2.5l1.6,0.9l1.8-3L47.2,61.2z
		 M59.8,48.3l-1.2,0.9l-4.5-6l1.2-0.9L59.8,48.3z M67.9,43.3L66.8,44L62,41.4l2.2,4l-1.3,0.7l-3.6-6.6l1.2-0.6l4.8,2.6l-2.2-4
		l1.3-0.7L67.9,43.3z M74,34.5l-1.8,0.6l2,5.8l-1.4,0.5l-2-5.8L69,36.2L68.6,35l5.1-1.7L74,34.5z M84,38.7l-4.9,0.8L78,32.2l4.9-0.8
		l0.2,1.3l-3.4,0.6L80,35l2.9-0.5l0.2,1.3l-2.9,0.5l0.3,1.8l3.4-0.6L84,38.7z M92.8,35.4c0,0.5,0,0.9-0.1,1.3
		c-0.1,0.3-0.3,0.7-0.5,0.9c-0.3,0.3-0.6,0.5-1,0.7c-0.4,0.1-0.7,0.2-1.1,0.2c-0.4,0-0.8-0.1-1.1-0.2c-0.3-0.1-0.6-0.3-0.9-0.6
		c-0.2-0.2-0.3-0.4-0.4-0.6c-0.1-0.2-0.2-0.4-0.2-0.7c0-0.3-0.1-0.5-0.1-0.8c0-0.3,0-0.6,0-0.9v-0.9c0-0.3,0-0.5,0.1-0.8
		c0-0.2,0.1-0.5,0.2-0.7c0.1-0.2,0.3-0.4,0.4-0.6c0.3-0.3,0.6-0.5,0.9-0.6c0.4-0.2,0.8-0.2,1.2-0.2c0.4,0,0.8,0,1.1,0.2
		c0.3,0.1,0.6,0.3,0.8,0.5c0.2,0.2,0.4,0.5,0.6,0.8c0.1,0.3,0.2,0.6,0.3,0.9h-1.5c-0.1-0.3-0.2-0.6-0.5-0.8
		c-0.3-0.2-0.6-0.3-0.9-0.3c-0.2,0-0.4,0-0.5,0.1c-0.1,0.1-0.3,0.2-0.4,0.3c-0.1,0.1-0.1,0.2-0.2,0.3c0,0.1-0.1,0.2-0.1,0.4
		c0,0.2-0.1,0.4-0.1,0.6c0,0.2,0,0.5,0,0.9s0,0.7,0,0.9c0,0.2,0,0.4,0.1,0.6c0,0.1,0.1,0.3,0.1,0.4c0,0.1,0.1,0.2,0.2,0.3
		c0.1,0.1,0.2,0.2,0.4,0.3c0.2,0.1,0.4,0.1,0.5,0.1c0.2,0,0.4,0,0.6-0.1c0.2-0.1,0.3-0.2,0.4-0.3c0.1-0.1,0.2-0.3,0.3-0.5
		c0.1-0.2,0.1-0.4,0.1-0.5v-0.3H90v-1.2h2.8L92.8,35.4z M101.9,39.8l-1.7-0.3l-0.9-3.2l-1-0.2L97.8,39l-1.4-0.3l1.3-7.4l2.9,0.5
		c0.4,0,0.7,0.2,1,0.3c0.3,0.2,0.5,0.4,0.7,0.6c0.2,0.2,0.3,0.5,0.3,0.8c0.1,0.3,0.1,0.6,0,0.9c0,0.2-0.1,0.5-0.2,0.7
		c-0.1,0.2-0.2,0.4-0.4,0.5c-0.1,0.1-0.3,0.3-0.5,0.3c-0.2,0.1-0.4,0.1-0.6,0.2L101.9,39.8z M101,34.3c0.1-0.3,0-0.5-0.2-0.8
		c-0.2-0.2-0.4-0.4-0.7-0.4L98.8,33l-0.3,2l1.4,0.2c0.3,0.1,0.6,0,0.8-0.1C100.9,34.9,101.1,34.6,101,34.3L101,34.3z M106.5,41.2
		l-1.4-0.5l2.3-7.1l1.4,0.5L106.5,41.2z M117.2,39l-1.8-0.8l-2.7,5.6l-1.3-0.6l2.7-5.6l-1.8-0.8l0.6-1.2l4.8,2.3L117.2,39z
		 M126.2,43.3l-4.4,2.3l-1.8,2.5l-1.2-0.8l1.8-2.5l0.7-4.9l1.3,0.9l-0.6,3.3l2.8-1.7L126.2,43.3z M135,64.6l-2.6-4.2l6.3-4l2.6,4.2
		l-1.1,0.7l-1.9-2.9l-1.5,0.9l1.6,2.5l-1.1,0.7l-1.6-2.5l-1.5,1l1.8,2.9L135,64.6z M138.7,72.8l-0.6-1.5l1.8-2.4l-3-0.3l-0.6-1.5
		l4.4,0.6l2.5-3.4l0.6,1.5l-1.7,2.1l2.7,0.3l0.6,1.5l-4.2-0.6L138.7,72.8z M143,79.8c-0.4,0-0.7,0-1.1-0.1c-0.3-0.1-0.6-0.2-0.9-0.4
		c-0.3-0.2-0.5-0.4-0.6-0.7c-0.2-0.3-0.3-0.6-0.4-0.9c-0.2-0.7-0.1-1.5,0.3-2.2c0.1-0.2,0.3-0.4,0.5-0.6c0.2-0.2,0.4-0.3,0.6-0.4
		c0.2-0.1,0.5-0.2,0.8-0.3l0.9-0.2l0.9-0.2c0.3-0.1,0.5-0.1,0.8-0.1c0.2,0,0.5,0,0.7,0.1c0.2,0,0.5,0.1,0.7,0.3
		c0.6,0.4,1.1,1,1.3,1.8c0.1,0.3,0.1,0.7,0.1,1c0,0.3-0.1,0.6-0.2,0.9c-0.1,0.3-0.3,0.6-0.6,0.8c-0.3,0.2-0.6,0.4-0.9,0.6l-0.4-1.4
		c0.3-0.1,0.5-0.3,0.6-0.6c0.2-0.3,0.2-0.6,0.1-0.9c0-0.2-0.1-0.4-0.2-0.5c-0.1-0.1-0.2-0.2-0.4-0.3c-0.1-0.1-0.2-0.1-0.3-0.1
		c-0.1,0-0.3,0-0.4,0c-0.2,0-0.4,0-0.6,0.1l-0.9,0.2l-0.9,0.2c-0.2,0.1-0.4,0.1-0.6,0.2c-0.1,0-0.2,0.1-0.3,0.2
		c-0.1,0.1-0.2,0.2-0.2,0.2c-0.1,0.1-0.2,0.3-0.2,0.4c0,0.2,0,0.4,0,0.6c0.1,0.3,0.2,0.6,0.5,0.8c0.3,0.1,0.5,0.2,0.8,0.2L143,79.8z
		 M141.6,88.3l-0.4-4.9l7.4-0.6l0.4,4.9l-1.3,0.1l-0.3-3.5l-1.8,0.1l0.2,3l-1.3,0.1l-0.2-2.9l-1.8,0.2l0.3,3.4L141.6,88.3z
		 M141.2,96.5l0.4-4.8l7.5,0.5l-0.1,1.5l-6.2-0.4l-0.2,3.4L141.2,96.5z M139.6,104.3l1.1-4.7l7.3,1.8l-0.3,1.4l-6-1.4l-0.8,3.3
		L139.6,104.3z M136.8,111.8l1.9-4.6l6.9,2.8l-1.9,4.6l-1.2-0.5l1.3-3.2l-1.6-0.7l-1.1,2.8l-1.2-0.5l1.1-2.7l-1.7-0.7l-1.3,3.2
		L136.8,111.8z M132.3,119.5l0.7-1.1l5.4-0.1l-3.9-2.3l0.8-1.2l6.4,3.9l-0.7,1.1l-5.4,0.1l3.9,2.4l-0.8,1.2L132.3,119.5z
		 M128.4,127.9c-0.2-0.3-0.4-0.6-0.5-0.9c-0.1-0.3-0.2-0.6-0.2-0.9c0-0.3,0.1-0.6,0.2-0.9c0.1-0.3,0.3-0.6,0.5-0.8
		c0.5-0.6,1.2-1,1.9-1c0.2,0,0.5,0,0.7,0.1c0.2,0.1,0.5,0.2,0.7,0.3c0.2,0.1,0.4,0.3,0.6,0.5l0.7,0.6l0.7,0.6
		c0.2,0.2,0.4,0.4,0.5,0.6c0.1,0.2,0.3,0.4,0.4,0.6c0.1,0.2,0.1,0.5,0.2,0.7c0,0.4,0,0.7-0.1,1.1c-0.1,0.4-0.3,0.7-0.6,1
		c-0.2,0.3-0.5,0.5-0.8,0.6c-0.3,0.2-0.6,0.3-0.9,0.3c-0.3,0.1-0.6,0.1-0.9,0c-0.4-0.1-0.7-0.2-1-0.4l1-1.1c0.3,0.1,0.5,0.2,0.8,0.2
		c0.3,0,0.6-0.2,0.8-0.4c0.1-0.1,0.2-0.3,0.3-0.5c0.1-0.2,0.1-0.3,0.1-0.5c0-0.1,0-0.2-0.1-0.3c-0.1-0.1-0.1-0.2-0.2-0.3
		c-0.1-0.2-0.3-0.3-0.4-0.4c-0.2-0.2-0.4-0.4-0.7-0.6s-0.5-0.4-0.7-0.6c-0.1-0.1-0.3-0.2-0.5-0.3c-0.1-0.1-0.2-0.1-0.4-0.2
		c-0.1,0-0.2,0-0.3,0c-0.2,0-0.3,0-0.5,0.1c-0.2,0.1-0.3,0.2-0.4,0.3c-0.2,0.2-0.3,0.5-0.3,0.8c0,0.3,0.1,0.6,0.3,0.8L128.4,127.9z
		 M120.5,131.6l3.8-3.1l4.7,5.8l-3.8,3.1l-0.8-1l2.7-2.2l-1.1-1.3l-2.3,1.9l-0.8-1l2.3-1.9l-1.2-1.4l-2.7,2.2L120.5,131.6z
		 M77.5,147.7l-1.3-0.3l1.3-5.9l-1.8,1l0.3-1.4l1.8-0.9l1.3,0.3L77.5,147.7z M88.2,143.8c0,0.3-0.1,0.7-0.3,1
		c-0.1,0.3-0.3,0.6-0.5,1l-1.8,3.1l-1.5-0.1l1.8-3c-0.1,0-0.2,0-0.3,0.1h-0.3c-0.3,0-0.5-0.1-0.7-0.2c-0.2-0.1-0.4-0.3-0.6-0.5
		c-0.2-0.2-0.3-0.5-0.4-0.7c-0.1-0.3-0.1-0.6-0.1-0.9c0-0.3,0.1-0.7,0.3-1c0.1-0.3,0.3-0.5,0.5-0.7c0.2-0.2,0.5-0.3,0.8-0.4
		c0.3-0.1,0.6-0.1,0.9-0.1c0.3,0,0.6,0.1,0.9,0.2c0.3,0.1,0.5,0.3,0.7,0.5c0.2,0.2,0.3,0.5,0.4,0.8
		C88.2,143.2,88.2,143.5,88.2,143.8L88.2,143.8z M86.8,143.7c0-0.3,0-0.6-0.2-0.8c-0.2-0.2-0.4-0.3-0.7-0.3c-0.3,0-0.5,0.1-0.7,0.2
		c-0.2,0.2-0.3,0.5-0.3,0.8c0,0.3,0,0.6,0.2,0.8c0.2,0.2,0.4,0.3,0.7,0.3c0.3,0,0.5-0.1,0.7-0.2C86.7,144.3,86.8,144.1,86.8,143.7
		L86.8,143.7z M97.3,146.4c0,0.3,0,0.7-0.1,1c-0.1,0.3-0.2,0.5-0.4,0.7c-0.2,0.2-0.5,0.4-0.7,0.5c-0.3,0.1-0.6,0.2-0.9,0.2
		c-0.3,0-0.6,0-0.9-0.1c-0.3-0.1-0.6-0.2-0.8-0.3c-0.2-0.2-0.4-0.4-0.6-0.6c-0.2-0.3-0.3-0.6-0.3-1l1.4-0.1c0,0.2,0.1,0.3,0.1,0.4
		c0.1,0.1,0.1,0.2,0.2,0.3c0.1,0.1,0.2,0.1,0.3,0.1c0.1,0,0.3,0,0.4,0c0.3,0,0.5-0.1,0.7-0.3c0.2-0.2,0.3-0.5,0.2-0.8
		c0-0.6-0.5-1-1.1-0.9c0,0-0.1,0-0.1,0h-0.2l-0.1-1.2h0.2c0.3,0,0.5-0.1,0.7-0.3c0.1-0.2,0.2-0.4,0.2-0.7c0-0.3-0.1-0.5-0.3-0.7
		c-0.2-0.1-0.4-0.2-0.7-0.2c-0.2,0-0.5,0.1-0.6,0.3c-0.2,0.2-0.2,0.4-0.2,0.7l-1.4,0.1c0-0.3,0-0.6,0.1-0.9c0.1-0.3,0.2-0.5,0.4-0.7
		c0.2-0.2,0.4-0.4,0.7-0.5c0.3-0.1,0.6-0.2,0.9-0.2c0.3,0,0.6,0,0.9,0.1c0.3,0.1,0.5,0.2,0.8,0.4c0.2,0.2,0.4,0.4,0.5,0.6
		c0.1,0.3,0.2,0.6,0.2,0.9c0,0.3,0,0.7-0.2,1c-0.1,0.2-0.3,0.5-0.6,0.6c0.3,0.1,0.5,0.3,0.7,0.6C97.2,145.7,97.3,146.1,97.3,146.4
		L97.3,146.4z M105.6,147l-1.3,0.3l-1.4-5.8l-1.2,1.6l-0.4-1.4l1.2-1.7l1.3-0.3L105.6,147z M128,53.2l0.2-3.6l3.6,0.2l-0.2,3.6
		C131.6,53.4,128,53.2,128,53.2z M112.5,142.2l1-3.5l3.5,1l-1,3.5L112.5,142.2z M51.4,53.3l-3.6,0.1l-0.1-3.6l3.6-0.1L51.4,53.3z
		 M68.3,142.1l-3.4,1.1l-1.1-3.4l3.4-1.1L68.3,142.1z M84.7,53v1c0,0.3,0,1.1,0,2v1.6c0,0.1,0,0.3,0,0.4c0,0.1-0.1,0.2-0.2,0.2
		c-0.5,0.3-1.1,0.4-1.7,0.5c-0.7,0.1-1.3,0.2-2,0.2c-0.9,0-1.8-0.1-2.7-0.3c-0.8-0.2-1.6-0.6-2.2-1.1c-0.7-0.5-1.2-1.1-1.5-1.9
		c-0.4-0.8-0.6-1.7-0.6-2.6c0-1,0.2-2.1,0.8-3c0.5-0.8,1.1-1.5,1.9-2c0.6-0.4,1.3-0.6,2-0.8c1-0.2,1.9-0.2,2.9-0.2l0.8,0.1l0.7,0.1
		c0.1,0,0.3,0,0.4,0.1l0.6,0.1l0.5,0.1c0.3,0,0.3,0.2,0.3,0.3s0,0.1,0,0.2s0,0.5-0.1,0.8s0,0.8,0,1.5c0,0.3-0.1,0.4-0.3,0.4
		s-0.2,0-0.3-0.3c0-0.2-0.1-0.4-0.2-0.7c-0.1-0.2-0.2-0.4-0.3-0.5c-0.4-0.3-0.8-0.6-1.3-0.8c-1.1-0.4-2.4-0.5-3.5-0.2
		c-0.5,0.1-1,0.4-1.4,0.7c-0.4,0.4-0.8,0.9-1,1.4C76.1,51,76,51.7,76,52.5c0,0.7,0.1,1.5,0.4,2.2c0.2,0.6,0.5,1.2,1,1.8
		c0.5,0.5,1,0.9,1.6,1.2c0.7,0.3,1.4,0.4,2.1,0.4c0.3,0,0.5,0,0.7,0c0.2,0,0.3-0.1,0.5-0.1c0.2-0.1,0.3-0.3,0.2-0.5V56
		c0-0.9,0-1.7,0-2c0-0.2,0-0.4-0.1-0.5c-0.1-0.1-0.3-0.2-0.4-0.2c-0.2,0-0.4,0-0.6,0c-0.3,0-0.3-0.2-0.3-0.2s0.1-0.3,0.4-0.3h1.4
		h0.8h0.8l0,0C84.6,52.8,84.7,52.8,84.7,53C84.7,53,84.7,53,84.7,53z M92.9,58.6c0,0.1-0.1,0.3-0.4,0.3h-1.7h-0.7h-0.7h-1.2
		c-0.3,0-0.4-0.1-0.4-0.3s0-0.2,0.3-0.2c0.2,0,0.3,0,0.5-0.1c0.2,0,0.3-0.3,0.4-0.7s0.1-0.7,0.1-1.2s0-1.2,0-2.1v-5
		c0-0.3,0-0.6,0-0.9c0-0.5-0.2-0.7-0.4-0.8c-0.2,0-0.3-0.1-0.5-0.1c-0.3,0-0.3-0.2-0.3-0.3s0.3-0.2,0.5-0.2h1.1h0.8H91h1.1
		c0.1,0,0.4,0,0.4,0.2s0,0.3-0.3,0.3c-0.1,0-0.3,0-0.4,0c-0.1,0-0.3,0.1-0.3,0.2c-0.1,0.2-0.1,0.4-0.1,0.6c0,0.3,0,0.5,0,0.9v4.9
		c0,0.9,0,1.6,0,2.1c0,0.4,0,0.8,0.1,1.2c0,0.2,0.1,0.3,0.2,0.5c0.1,0.1,0.2,0.2,0.4,0.2h0.4h0.4C92.8,58.3,92.9,58.4,92.9,58.6
		L92.9,58.6z M106.2,58.3c-0.2,0-0.4,0-0.6,0c-0.2-0.1-0.4-0.2-0.6-0.4c-0.3-0.4-0.5-0.8-0.7-1.2l-3.3-8.1c-0.2-0.6-0.4-1-0.4-1.1
		c-0.2-0.4-0.3-0.5-0.5-0.5c-0.1,0-0.2,0.1-0.3,0.2c-0.1,0.2-0.2,0.3-0.2,0.5L95.9,57c-0.1,0.3-0.3,0.7-0.5,0.9
		c-0.2,0.2-0.4,0.3-0.7,0.3h-0.4c-0.3,0-0.3,0.2-0.3,0.2s0,0.3,0.4,0.3h0.8h0.7h0.3h0.8h0.8c0.3,0,0.4-0.2,0.4-0.3s0-0.2-0.3-0.2
		h-0.2c-0.1,0-0.3,0-0.4-0.1C97.1,58.1,97,58,97,57.9c0-0.3,0.1-0.6,0.2-0.9l0.8-2.2h3.4l1.2,3.2l0.1,0.4c0,0.2,0.1,0.3,0.3,0.3h0.5
		h0.7h1.4c0.2,0,0.4,0,0.6,0c0.2,0,0.2-0.2,0.2-0.2S106.5,58.3,106.2,58.3L106.2,58.3z M101.2,53.9h-2.7l1.4-3.7L101.2,53.9z
		 M73,88.2L73,88.2z M80.5,85.1l45-21.2l-0.1-0.3h-71l-0.1,0.3c-1.4,9.9-1.1,19.9,0.8,29.6c3,14.5,11.4,33.7,34.7,42.6l0.1,0.1
		l0.2-0.1c23.7-9.3,32-28.4,34.8-42.9c1.8-9.7,2-19.6,0.4-29.4L80.5,85.1z M71.3,80.8c0-0.1,0.2-0.1,0.4-0.2s0-0.2,0.1-0.3
		c0-0.1,0.1-0.2,0.1-0.3l0.4-0.2c-0.4,0.6-0.8,1.3-1.1,2c0-0.2,0-0.4-0.1-0.4s-0.3,0-0.4,0s-0.1-0.1,0.1-0.2
		c0.2-0.1,0.3-0.1,0.5-0.1C71.3,81.1,71.3,81,71.3,80.8z M75,78.1c-0.4,0.2-0.7,0.3-1.1,0.4c0.3-0.3,0.6-0.6,0.9-0.9
		c0,0-0.1,0.1-0.1,0.2C74.8,77.9,75,78,75,78.1z M77.4,80.7L77.4,80.7c0,0,0,0.3,0.1,0.7c0,0.1,0.1,0.3,0.1,0.4s0.2,0.2,0.2,0.2
		l0.2-0.1c0.2-0.1,0.2,0.1,0.4,0.1c0.1,0,0.2,0,0.3,0.1c0.1,0.1,0.1,0.3,0,0.4s-0.1,0.2-0.2,0.2c-0.5,0.1-0.9-0.2-0.8,0.7
		c0.1,0.3,0.2,0.3,0.4,0.2c0.3-0.2,0.6-0.2,0.9-0.2c0,0,0,0.1,0,0.3c-1.5,0.4-2.2,0.7-3.8,1.2c0.1-1.2,0.2-2.4,0.5-3.6L77.4,80.7z
		 M75.9,80.6c0.1-0.3,0.2-0.6,0.3-0.9c0.1,0,0.3,0,0.4,0.1c0.1,0.1,0.3,0.4,0.5,0.3s0,0,0.1,0L75.9,80.6z M82.5,86.1
		c0-0.3,0.4-1.3,0.2-1.5s0.4-0.8,0.6-0.9c0.1,0,0,0.2,0.2,0.2s0.2-0.1,0.2-0.2s0-0.1,0-0.1s0-0.1,0-0.1c0-0.1,0-0.3,0.1-0.4l0,0
		c0.9-0.2,1.8-0.4,2.6-0.6c0.3,1.3,0.7,2.6,1,4.2c-2.8,0.6-3.5,0.8-5.9,1.4l-0.1-0.6l0.2-0.1c0.3-0.1,0.4,0.5,0.7-0.1
		C82.6,86.9,82.5,86.4,82.5,86.1L82.5,86.1z M101.8,79.1c0-0.1,0-0.1,0-0.2c0.3,0.3,0.5,0.6,0.8,0.9c0,0.1-0.1,0.1-0.1,0.2l0,0h-0.8
		C101.8,79.7,101.9,79.4,101.8,79.1L101.8,79.1z M102.1,78.3c0.2-0.3,0.6-0.5,0.8-0.2s-0.1,0.6-0.1,0.9c0,0,0,0.1,0,0L102.1,78.3z
		 M102.9,80.6c0,0.1-0.1,0.2,0,0.3c0.1,0.1,0.2,0.2,0.3,0.3h0.1c0.2,0,0,0.2,0.1,0.3c0,0,0,0,0.1,0c0.1,0,0.2,0,0.3,0l0.3,0.5
		c-0.3,0.1-0.5,0.2-0.4,0.4c0.3,0.6,0.7,0.1,0.9,0.4c-0.1-0.1,0.2,0.3,0.2,0.5s-0.4,0-0.7-0.1s-0.1-0.2-0.2-0.1s-0.1,0.2-0.1,0.5
		c0,1,0.3,0.3,0.3,0.7c0,0.2-0.2,0.3-0.3,0.5c-0.6,0-1.3,0-1.9,0c0-0.2,0.1-0.3,0.4-0.3s0.2-0.3,0.1-0.4c0,0,0-0.1,0-0.1
		c-0.1-0.1-0.3-0.1-0.2-0.3s-0.2-0.5-0.2-0.6s0.6-0.3,0.5-0.4s0-0.4-0.2-0.6c-0.1-0.1-0.8-0.4-0.8-0.5s-0.1-0.9-0.2-0.8l0,0
		L102.9,80.6z M108.2,91.3c0.1,0.5,0.3,1,0.4,1.6c-0.1-0.2-0.3-0.3-0.4-0.5c-0.2-0.2-0.3-0.3-0.4-0.5c-0.1-0.1,0.3,0.1,0.3,0
		S108,91.4,108.2,91.3L108.2,91.3z M107.9,93.5c0.3,0.4,0.5,0.5,0.7,0.2c0.1-0.1,0.1-0.1,0.2-0.1c0.1,0.3,0.1,0.6,0.2,0.8h-3.2
		c-0.1-0.1-0.1-0.2-0.1-0.4c0,0,0.1-0.1,0.1-0.1c0.1-0.2,0.2-0.4,0.2-0.6c0-0.2-0.3-0.6-0.3-0.7s0.2,0,0.3,0s0.1-0.2,0.1-0.2
		s-0.6-0.2-0.9-0.3c-0.1,0,0-0.2-0.1-0.2c-0.4-0.1-0.7-0.2-0.8-0.3c-0.2-0.2-0.4-0.4-0.7-0.6c-0.1,0-0.2-0.1-0.2-0.2h1
		c0,0.1,0.1,0.1,0.2,0.2c0.4,0.1,0.7,0.2,1,0.4h0.7c0,0,0.1,0.7,0.2,0.7s0.3,0.3,0.5,0.5s0.3,0.1,0.4,0.2
		C107.6,93,107.8,93.3,107.9,93.5L107.9,93.5z M109.4,93.3c-0.1-0.5-0.2-1-0.4-1.5c0.2,0,0.3,0,0.4,0.2s-0.1,0.3,0,0.4l0.3,0.2
		c0.1,0.1,0,0.2,0.1,0.3c0.3,0.1,0.6,0.1,0.8,0.3c0.4,0.3,0.5-0.4,0.6-0.5c0.3-0.2,0.5,0.2,0.8,0.2s0.5-0.4,0.7-0.7
		c0.1-0.1,0.2-0.1,0.2-0.1s-0.1,0.2-0.1,0.4s0.3,0.4,0.3,0.7c0,0.4,0,0.7-0.1,1.1v0.1h-3.5C109.5,94.1,109.4,93.7,109.4,93.3
		L109.4,93.3z M109.8,88.1c0.1,0.1,0.3,0,0.4,0.1s0.2-0.3,0.3-0.2s-0.1,0.4-0.1,0.5s0.2,0,0.3,0s0.1,0.4,0.2,0.3s0.7-0.5,0.9-0.6
		h0.2c0.2,0.5,0.4,1,0.6,1.5c-0.2,0-0.6,0.1-0.8,0.1c-0.5-0.1-0.8,0.2-1.1,0.5c-0.5,0-1-0.1-1.5-0.1c0-0.1,0-0.1,0.1-0.2
		c0.2-0.5,0-1.1,0.2-1.7c0.1-0.1,0.3-0.4,0.5-0.4S109.7,88.1,109.8,88.1L109.8,88.1z M113.1,89.8c-0.2-0.5-0.3-0.9-0.5-1.4
		c0.5,0.2,0.9,0.4,1.3,0.7C114.2,89.5,113.6,89.8,113.1,89.8L113.1,89.8z M103.5,93.4c-0.1-0.6-0.3-1.1-0.4-1.7
		c0.3,0.3,0.6,0.7,1,0.7c0.2,0,0.3,0,0.4,0.1s0.3,0.2,0.5,0.3c0.2,0.1,0.4,0.3,0.5,0.5c0,0.1,0.1,0.5-0.1,0.6
		c-0.2,0.1-0.4,0.1-0.7,0.1c-0.2,0-0.3,0.2-0.3,0.3c0,0,0,0,0,0c0,0,0,0.1,0,0.1h-0.7C103.7,94.1,103.6,93.8,103.5,93.4L103.5,93.4z
		 M105.9,81c-0.2,0.1-0.3,0.2-0.3,0.3c-0.1,0.3-0.7,0.1-0.8,0.3l0,0l-0.3-0.5c0.4-0.4,1-0.5,1.5-0.3C105.9,80.9,106,81.1,105.9,81
		L105.9,81z M103.1,85.2l-0.2,0.2c-0.3,0.3-0.8,0.2-1.2,0.4l0,0c0.2-0.4-0.4-0.3-0.4-0.4l0,0L103.1,85.2z M101.6,92.2
		c0.3-0.3,0.4-0.8,0.8-0.9c0.2,0.7,0.4,1.5,0.5,2.3c0.1,0.3,0.1,0.6,0.2,0.9h-3.2c0-0.1,0.1-0.1,0.1-0.2c0.2-0.2,0.2-0.4,0.3-0.6
		s0.5-0.4,0.5-0.5s-0.2-0.3-0.2-0.5s0.2-0.3,0.3-0.3S101.4,92.3,101.6,92.2z M90.1,94.4c-0.1-0.4-0.2-0.9-0.3-1.3l-0.1-0.6
		c2.9-0.6,3.7-0.7,6.1-1c0.2,0.6,0.3,1.3,0.5,2l-0.1,0.1c-0.1,0.1,0,0.3,0.2,0.5l0,0c0,0,0,0.2,0,0.2L90.1,94.4z M69.6,92.7
		c0.8-0.4,2-0.8,2.9-1.2c0,0.1-0.2,0.3-0.2,0.4c0.1,0.2,0.1,0.4,0.1,0.6c0,0.5-0.8,0.6-0.4,0.9s0.1,0.7-0.2,1h-2.1
		C69.6,93.8,69.6,93.3,69.6,92.7z M69.9,91.4C69.9,91.4,70,91.5,69.9,91.4c0.1,0.1,0.1,0.2,0.2,0.2s0.2-1,0.3-0.9
		c0.1,0.1,0.1,0.2,0.2,0.3c0,0.1,0.5,0,0.5-0.3c0-0.1,0.1-0.2,0-0.3s-0.1,0-0.3,0.2s-0.2-0.1-0.3-0.2s-0.1-0.2-0.2-0.2s-0.2,0-0.2,0
		c-0.1-0.1-0.1-0.3,0-0.4c0,0,0-0.1,0-0.1c0,0,0-0.1,0-0.1c0-0.1-0.2-0.2-0.2-0.3s0.2,0.2,0.3,0s1-0.9,0.7-1
		C70.5,88.1,71,87.4,71,87c0.5-0.2,0.9-0.4,1.4-0.6c0,0.2,0,0.4,0,0.4s0.4-0.5,0.4-0.5c0.2,0.2,0.4,0.5,0.5,0.8
		c0,0.2-0.1,0.2-0.1,0.3c0,0,0.1,0.1,0,0.3c-0.1,0.2-0.1,0.4-0.3,0.5c-0.1,0.2,0,0.2,0.2,0.3s0.1,0.2,0.2,0.2s0,0,0,0
		c-0.2,0.1-1.1,0.8-1.2,0.8s-0.2,1.1,0.2,0.9c0.2-0.1,0.4-0.4,0.5-0.6c0,0,0,0,0.1,0s0.2-0.1,0.3-0.2s0.2,0.1,0.3,0.1
		s0.2,0.2,0.2,0.3c0.1,0.1,0.2,0.2,0.3,0.2l-0.4,0.2l-0.2,0.1c-0.1,0,0-0.2-0.3-0.2c-0.1,0-0.1,0.2-0.2,0.3s-2.6,1-3.4,1.4
		c0-0.4,0-0.9,0-1.3l0,0c0.2-0.1,0.3,0.1,0.2,0.3C69.6,91.2,69.8,91.3,69.9,91.4z M74.5,91.1c0-0.1-0.1-0.2-0.3-0.3
		c0.2-0.1,0.3-0.1,0.5-0.2l0.1,1l0,0C74.7,91.6,74.5,91.1,74.5,91.1z M74.7,85l-0.3,0.1c0-0.2,0.3-0.4,0-0.5c0,0,0,0-0.1,0
		c0,0.1-0.1,0.2-0.1,0.2s-0.2-0.2-0.3-0.3s-0.3-0.1-0.4-0.1s-0.1-0.2-0.2-0.2s-0.3,0.2-0.4,0.2s-0.1-0.3-0.3-0.5s-0.3,0.3-0.5,0.2
		c0,0-0.3,0-0.4,0s0.3-0.2,0.2-0.3s-0.2-0.4-0.3-0.4c-0.2,0-0.4,0.1-0.5,0.2c0.1-0.2,0.2-0.5,0.3-0.8c1-0.5,2.2-0.9,3.4-1.4l0.6-0.2
		C74.9,82.6,74.7,83.8,74.7,85z M72.1,86L71,86.4c-0.1-0.2-0.2-0.3,0.1-0.3c0.4,0.1,0.3-0.5,0.5-0.4S72,85.9,72.1,86
		C72.2,85.9,72.1,85.9,72.1,86z M86.2,77.2c0,0,0.1-0.2,0.1-0.2s0.8,0.1,0.3-0.3c0,0-0.2,0-0.2-0.1s0.3-0.1,0.3-0.2
		s-0.2-0.4-0.3-0.5c-0.1-0.1-0.3-0.2-0.4-0.3c1-0.2,1.9-0.3,2.8-0.5c0.6,0.6,1.1,1.3,1.5,2c-1.4,0.2-2.8,0.4-4.3,0.7H86l0,0v-0.1h0
		c0.1,0,0.5,0,0.6-0.2S86.4,77.3,86.2,77.2L86.2,77.2z M99.6,77.9C99.6,77.9,99.6,77.9,99.6,77.9l-0.1,0.1c0,0-0.1,0,0,0.1
		c0.2,0.5-0.1,0.2-0.2,0.8s0.3,0.3-0.2,0.8c-0.1,0.2-0.2,0.3-0.3,0.5h-0.3c-0.6-1.1-1.4-2.1-2.2-3c1.5-0.1,2.1-0.1,3.1-0.1h0.1
		c0.2,0.2-0.1,0.3-0.1,0.5C99.5,77.7,99.5,77.7,99.6,77.9L99.6,77.9z M95.7,88.3c0-0.1-0.3-0.8,0-0.6l0.4,0.3
		c0.1,0.1,0.1,0.2,0.1,0.3c0,0,0,0-0.1,0.1c-0.1,0.1-0.2,0.9,0.2,0.6c0.2-0.1,0.5-0.2,0.8-0.2c0,0-0.1,0.1-0.2,0.2s-0.3,0-0.4,0.1
		s-0.2,0.7-0.1,0.7c0.3,0.2,1.5-1.6,2.3-0.9c0.1,0.1,0,0.1-0.1,0.2s0,0.1-0.2,0.2s-0.3,0.3-0.4,0.3s-0.2-0.1-0.2-0.1
		c-0.2-0.1,0,0.4,0,0.4c0.1,0.3-0.6,0.4-0.9,0.5c0,0-0.1,0.1-0.1,0.1c0,0.1,0.1,0.1,0.2,0.2l-0.7,0.1c-0.2-0.7-0.4-1.4-0.6-2.1
		C95.8,88.6,95.8,88.4,95.7,88.3z M94.5,87.8c0,0.1-0.1,0.1-0.2,0.2c0,0-0.1,0-0.1,0.1c0,0.2,0,0.3,0.1,0.5c0,0.2,0.3,0,0.3,0.1
		c0.2,0.2-0.4,0.9,0.1,0.9c0.2,0,0.4-0.1,0.6-0.3c0.2,0.6,0.3,1.1,0.4,1.7c-2,0.3-4.1,0.6-6.1,1c-0.4-2-0.8-3.6-1.2-5
		c1.9-0.4,3.9-0.7,5.9-1c0.1,0.4,0.3,0.8,0.4,1.3c-0.1,0-0.1,0.1-0.2,0.1C94.5,87.3,94.6,87.6,94.5,87.8z M94.9,85.9h0.2
		c0,0.1,0,0.2,0.1,0.3c0.1,0.1,0.1,0.1,0.2,0.1c0,0,0.1,0.1,0.1,0.1c0,0.1,0.2,0.3,0.2,0.5s0,0.1,0,0.2c-0.1,0.1-0.3,0.1-0.4,0.1
		C95.2,86.8,95,86.3,94.9,85.9z M98.1,91.3c0,0.1,0.1,0.1,0.1,0.1c0.1,0.1,0.5,0,0.5,0.2c0,0.3,0.1,0.5,0.2,0.8
		c0,0.1,0.2,0.2,0.1,0.3c-0.1,0.1-0.2,0.2-0.4,0.3c-0.1,0-0.2-0.1-0.4,0s-0.6,0-0.7,0.1c-0.2,0.1-0.4,0.2-0.7,0.2
		c-0.1-0.6-0.3-1.2-0.4-1.8L98.1,91.3z M99.3,88.1c-0.2,0-0.7,0.5-0.8,0.2s0.1-0.5,0-0.7s-0.2-0.1-0.4-0.1s-0.1,0-0.1-0.1
		c-0.2-0.5-1.3-0.9-1.6-1.2c-0.2-0.1-0.1-0.3,0-0.5c1.4-0.2,2.2-0.2,3.6-0.3c0.1,0.2,0.3,0.4,0.4,0.5c0.4,0.6,0.4,0.6-0.2,0.9
		c-0.2,0.1-0.8,0.4-0.8,0.8S99.6,88,99.3,88.1z M99.7,84.8c-1.8,0.1-2.6,0.2-4.2,0.4c0.1-0.1,0.1-0.3,0-0.4
		c-0.1-0.1-0.4,0.2-0.4,0.3v0.2h-0.4c-0.5-1.4-1-2.8-1.5-4.1c1.7-0.2,3.4-0.4,5-0.5l0.2,0.3c-0.3,0.4-0.1,0.4-0.2,0.6
		s-0.4,0.3-0.4,0.6c0,0.1,0.2,0.7,0.2,0.8c0,0,0,0,0,0.1c0.2,0.1,0.3,0.2,0.5,0.3l-0.2,0.1c0,0,0,0.1,0,0.1c0.1,0.2,0.2,0.3,0.3,0.5
		c0.1,0.1,0.2,0.2,0.4,0.2c0,0,0.1,0,0.1,0c0,0,0.1,0,0.1,0c0.1,0,0.2,0,0.3-0.1c0.1-0.1,0.3-0.2,0.4-0.3l0.2,0.5
		C99.8,84.5,99.7,84.6,99.7,84.8z M92.9,80.7c-0.5-1.2-1-2.2-1.6-3.1c1.5-0.2,2.9-0.3,4.2-0.4c0.8,0.9,1.6,1.9,2.2,3
		C95.6,80.4,95,80.5,92.9,80.7z M95.8,76.6c-0.7-0.7-1.4-1.4-2.2-1.9c0.9,0,1.8,0,2.7,0c1.1,0.5,2.1,1.1,3,1.9
		C98.2,76.5,97.1,76.6,95.8,76.6z M95.1,76.6c-1.3,0.1-2.7,0.2-4.1,0.4c-0.4-0.7-0.9-1.4-1.5-2c1.5-0.2,1.9-0.2,3.3-0.3
		C93.7,75.3,94.4,76,95.1,76.6L95.1,76.6z M87,79.2c0,0,0.1-0.3,0-0.3c-0.1-0.1-0.3-0.3-0.3-0.4c1.4-0.3,2.7-0.5,4.1-0.7
		c0.6,1,1.1,2,1.6,3.1c-1.8,0.2-3.5,0.5-5.2,0.9c-0.2-0.6-0.3-1.1-0.4-1.6C86.9,79.8,87.2,79.5,87,79.2z M89.8,81.8L89.8,81.8
		c0,0.1-0.5,0.4-0.6,0.3c-0.5-0.2-0.5,0.5-0.7,0.7c-0.1,0-0.2-0.4-0.3-0.4c0,0-0.3-0.1-0.3,0.1c0,0.1-0.1,0.2-0.1,0.3
		c0,0.1,0,0.2,0.1,0.2c0.1,0,0.1,0,0.2,0c0.2-0.1-0.2,0.3-0.2,0.4s0.5,0,0.7,0.1c-0.1,0.1-0.3,0.2-0.3,0.3s0.9-0.3,0.8-0.1
		c-0.1,0.4,0.6-0.2,0.6-0.2c0.4-0.3,0.8-0.9,1.2-1.2c0.1-0.1-0.3-0.5-0.7-0.6l2.3-0.3c0.5,1.2,1,2.6,1.5,4c-1.9,0.3-3.8,0.6-5.8,1
		c-0.4-1.4-0.7-2.8-1-4.1C88.3,82,89.1,81.9,89.8,81.8L89.8,81.8z M88.9,92.1c-2.1,0.4-4.2,0.9-6.2,1.4c-0.3-1.8-0.7-3.5-0.9-5
		c2-0.5,4-1,5.9-1.4C88.1,88.7,88.5,90.3,88.9,92.1L88.9,92.1z M82.9,94.4c0-0.1,0-0.2,0-0.2c2-0.5,4.1-1,6.2-1.5
		c0.1,0.6,0.3,1.1,0.4,1.7H82.9z M101.2,84.7h-0.4c-0.2-0.4-0.4-0.9-0.6-1.3l0,0c0.2,0.3,0.5,0.6,0.8,0.8
		C101.2,84.4,101.2,84.6,101.2,84.7L101.2,84.7z M100.8,75.9c0,0-0.4-0.1-0.6,0s0.1,0.1,0.1,0.1s0,0,0,0.1h-0.1 M100.2,76.1l0.1,0.1
		c-0.2,0.1-0.2-0.1-0.4,0.1c-0.7-0.6-1.5-1.1-2.3-1.6c0.7,0.1,1.3,0.1,1.8,0.2c0.4,0.2,0.8,0.3,1.1,0.5c0.1,0.2,0.2,0.4,0.1,0.4
		L100.2,76.1z M96.6,74.2c-0.6-0.3-1.5-0.5-2.1-0.7l1.8,0.3c0.5,0.1,1,0.3,1.5,0.4C97.8,74.2,96.9,74.2,96.6,74.2L96.6,74.2z
		 M95.2,74.2L95.2,74.2c-0.7,0-1.3,0-2.2,0.1c-0.5-0.3-1-0.6-1.6-0.8h1C93.4,73.6,94.3,73.8,95.2,74.2L95.2,74.2z M92,74.3
		c-0.9,0.1-1.9,0.2-2.9,0.3c-0.3-0.3-0.7-0.6-1.1-0.9c0.7-0.1,1.3-0.1,1.9-0.2C90.7,73.7,91.4,73.9,92,74.3z M88.4,74.7
		c-0.7,0.1-1.3,0.2-2,0.3c0-0.2-0.2,0-0.3-0.2s-0.1-0.1-0.2-0.1s-0.4,0-0.6,0s-0.1-0.1-0.1-0.2s0.4,0,0.5-0.4c0-0.1,0-0.2,0-0.2
		l1.2-0.2C87.5,74,88,74.3,88.4,74.7L88.4,74.7z M86,80.6c0.1,0.4,0.2,0.8,0.3,1.3c-0.7,0.1-1.4,0.3-2,0.4l0.1-0.2
		c0.2-0.3,0.5-0.2,0.7-0.5C85.4,81.2,85.7,80.9,86,80.6L86,80.6z M82,93.7l-2.4,0.7h-0.2c0.1-0.1,0.1-0.1,0.2-0.2c0-0.1,0-0.2,0-0.3
		c0-0.2,0-0.4-0.2-0.4c-0.2,0-0.3,0-0.5-0.1c0,0,0-0.1,0-0.1c0.1-0.1,0.1-0.3,0.1-0.3c-0.2-0.1-0.7,0-1-0.1
		c-0.2-0.1-0.5-0.2-0.7-0.4c0,0,0-0.1,0-0.1l0.2-0.1c0.1,0-0.1-0.2-0.2-0.3s-0.1,0-0.2-0.1s0-0.1,0-0.2l-0.2-0.3
		c-0.2-0.3-0.2,0-0.3-0.1s0.3-0.4-0.1-0.4c-0.1,0-0.1-0.6-0.3-0.5s-0.4,1.5-0.7,1.2c-0.1-0.5-0.1-0.9-0.1-1.3
		c2.7-0.9,3.4-1.1,5.8-1.8C81.4,90.3,81.7,92,82,93.7z M75.6,89.7c-0.1-0.2-0.2-0.4-0.3-0.4c0-0.2,0-0.3,0-0.4c0.2,0,0.3,0.1,0.5,0
		s-0.2-0.3-0.2-0.3c0-0.1,0.1-0.1,0.1-0.2c0,0,0-0.1,0-0.1c0-0.2-0.1-0.5-0.2-0.3c0,0-0.1,0-0.2,0s0-0.4,0-0.6
		c0.2,0.1,0.4,0.2,0.6,0.2c0.1,0,0.3,0,0.3,0c0.4-0.1,0-0.4,0-0.5s0.2,0,0.2-0.1s0-0.4,0.3-0.6s0-0.6-0.2-0.6
		c-0.2,0.1-0.3,0.2-0.3,0.3c-0.1,0.1-0.3,0.1-0.3,0s-0.1-0.4-0.3-0.4l0,0c0-0.2,0-0.3,0-0.5c1.8-0.6,2.7-0.9,3.8-1.2
		c0,0,0,0.1,0,0.2c-0.4,0.2-0.6,0.6-0.4,1c0,0.2,0.2,0.1,0.3,0.2s0,0.4,0.1,0.5s0.3,0.4,0.3,0.4c0.2,0.2,0.3,0.6,0.5,0.6
		c0.1,0,0.2,0.1,0.3,0.2c0.1,0.1,0.2,0.2,0.3,0.3c0.2,0.2,0.3,0.2,0.4,0.1c0,0.1,0,0.2,0,0.3C78.4,88.8,77.7,89.1,75.6,89.7
		L75.6,89.7z M75.2,80.8L75,80.9l-0.6,0.2c-1.1,0.4-2,0.8-2.9,1.2c0.4-1,1-1.9,1.6-2.8c0.1,0.1,0.2,0.4,0.4,0.4s0.2-0.3,0.3-0.4
		s0.2,0,0.4-0.1s0.1,0.1-0.1,0.3s-0.5,0.6-0.6,0.6c-0.5,0,0.9,1,0.7,0c0.2,0,0.3,0,0.5,0c0.2,0,0.6-0.6,0.8-0.6l0,0
		C75.5,80.1,75.4,80.4,75.2,80.8L75.2,80.8z M72.9,79l-1,0.5c0-0.1,0-0.1,0.1-0.2c0.2-0.2,0.4-0.3,0.5-0.4l0,0h0.1l0,0
		c0.4-0.3,0.8-0.6,1.3-0.9l0.1-0.1C73.6,78.2,73.2,78.6,72.9,79z M70.6,82.2c0,0.1,0.2,0.1,0.3,0.1c0,0.1-0.1,0.2-0.1,0.3l-0.4,0.2
		l-0.7,0.3l-1,0.5h-0.2c0,0,0.1-0.4,0.2-0.4s0.1,0.1,0.3,0s0.2-0.2,0.4-0.3s0.3-0.1,0.3-0.3s0-0.3,0.1-0.4s0.1,0,0.2,0.1
		s0,0.2,0.3,0.1S70.5,82.1,70.6,82.2z M70.5,83.3c-0.1,0.3-0.3,0.7-0.4,1.1c-0.2,0.1-0.3,0.1-0.5,0c0,0-0.1,0.2-0.4,0.4L69,84.9
		c-0.1,0.1-0.1,0.2-0.1,0.3c0,0.1-0.2,0.3-0.1,0.4s-0.1,0.6,0,0.7s-0.2,0.2,0,0.3s-0.1,0.4-0.1,0.4c-0.1,0.1-0.3,0.2-0.4,0.2
		c-0.2,0-0.4,0-0.6-0.1c-0.1,0,0.2-0.3,0.1-0.4s-0.1-0.1,0-0.2s-0.2-0.3,0.1-0.3s0.4-0.7,0.3-0.7s-0.3,0-0.1-0.3s-0.1-0.2-0.2-0.1
		c-0.2,0.1-0.4,0.1-0.6,0.2l0.3-0.6C68.4,84.3,69.4,83.8,70.5,83.3z M68.7,91.9c0-0.2,0.1-0.4,0.3-0.6v1l-0.3,0.2
		C68.7,92.2,68.7,92,68.7,91.9z M67.2,84.4c-0.7,0.5-1.1,0.7-1.4,0.9c0.4-0.6,0.8-1.2,1.3-1.7c0.1,0.1,0.3,0.2,0.4,0.3L67.2,84.4z
		 M66.5,90.4c0,0.1-0.1,0.2-0.2,0.2s-0.2,0.2-0.2,0.2c-0.2,0.1-0.3,0-0.5-0.1h-0.1c0.1-0.4,0.2-0.7,0.3-1.1c0.2-0.1,0.4-0.3,0.7-0.4
		c0,0.1,0,0.3-0.1,0.4c0,0,0,0.1,0,0.1c0,0,0,0,0.1,0.1c0.1,0,0.2,0,0.2-0.1l0,0c0.1,0.1,0.1,0.2,0.2,0.3c0,0.1-0.2,0-0.2,0
		c-0.1,0-0.1,0-0.1,0.1C66.5,90.2,66.5,90.3,66.5,90.4z M66.8,88.4L66,88.8c0.3-0.9,0.6-1.7,0.9-2.6c0.2,0.3,0.3,0.6,0.2,0.9
		c-0.1,0.3-0.3,0.4-0.3,0.6S67,88.1,66.8,88.4L66.8,88.4z M66.8,85.4c-0.6,1.2-1.1,2.5-1.4,3.9l-0.5,0.3c0.1-0.2,0.1-0.4,0-0.5
		c-0.1-0.1,0.3-0.8,0.3-0.8c-0.1-0.1-0.1-0.3-0.2-0.4c0-0.1,0-0.1-0.1-0.1s-0.2-0.1-0.2-0.1s-0.1,0-0.1,0l0.5-0.9
		C65.6,86.2,66.1,85.8,66.8,85.4L66.8,85.4z M67.9,93.9c0-0.1,0.1-0.3,0.1-0.4l1-0.5c0,0.5,0,1,0,1.4h-0.9
		C68,94.3,67.9,94.1,67.9,93.9L67.9,93.9z M87.8,130.7c-14.6-6.6-23.2-16.6-27.3-31.8h27.3V130.7z M92.3,130.7V98.9h27
		C115.6,111.1,107.9,123.3,92.3,130.7L92.3,130.7z M120.5,94.5L120.5,94.5c-5.2-16.8-23-26.3-39.8-21.2c-10.2,3.1-18.1,11-21.2,21.2
		h-0.1v-0.1c-1.6-8.7-2.1-17.6-1.2-26.4h63.6C122.7,76.8,122.3,85.7,120.5,94.5L120.5,94.5z"/>
</g>
</svg>
