<?xml version="1.0" encoding="utf-8"?>
<!-- Generator: Adobe Illustrator 24.0.1, SVG Export Plug-In . SVG Version: 6.00 Build 0)  -->
<svg version="1.1" id="Layer_1" xmlns="http://www.w3.org/2000/svg" xmlns:xlink="http://www.w3.org/1999/xlink" x="0px" y="0px"
	 viewBox="0 0 399.6 174.6" style="enable-background:new 0 0 399.6 174.6;" xml:space="preserve">
<style type="text/css">
	.st0{fill:#010101;}
	.st1{fill:#8C7969;}
	.st2{clip-path:url(#SVGID_2_);fill:#8C7969;}
	.st3{clip-path:url(#SVGID_4_);fill:#8C7969;}
	.st4{clip-path:url(#SVGID_6_);fill:#8C7969;}
	.st5{fill:#8D7967;}
	.st6{font-family:'MyriadPro-Regular';}
	.st7{font-size:12.6315px;}
	.st8{font-size:12.6435px;}
</style>
<g>
	<path d="M332.1,87.1c7.9,0,15.8,0,23.7,0.1c0.5,0,1.1,0,1.5,0.4c0.4,0.4,0.4,1.1,0.4,1.6c-0.5,18.3-10.5,36.2-26,46.1
		c-5.3,3.4-11.2,5.8-17.3,7.3c-6.1,1.5-12.5,1.9-18.8,1.3c-6.1-0.6-12.4-2.1-18-4.6c-5.2-2.4-10-5.7-14.3-9.5
		c-4.3-3.9-7.9-8.4-10.9-13.3c-3-4.9-5.3-10.3-6.7-15.8c-0.8-3-1.3-6.1-1.5-9.2c-1.7-20.8,8.9-42.1,26.5-53.3s41.4-11.8,59.6-1.6
		c8.4,4.7,15.7,11.9,19,20.9c-3.7,0.2-7.4,0.5-11.1,0.7c-0.9,0.1-1.8,0.1-2.6-0.1c-1.3-0.4-2.3-1.3-3.3-2.2
		c-10.7-9.4-26-13.1-39.8-9.5c-13.7,3.6-25.3,14.5-29.6,28c-4.3,13.5-1.1,29.2,8.3,39.8S296,130,309.9,127s25.7-14.1,29.4-27.8
		c-10.4,0-20.7,0-31.1-0.1c-0.5,0-1.1,0-1.5-0.4c-0.4-0.4-0.5-1.1-0.5-1.7c0-3.2,0.1-6.5,0.1-9.7C315,87.2,323.6,87.1,332.1,87.1z"
		/>
	<rect x="206.2" y="31.1" class="st0" width="16.2" height="111"/>
	<path class="st1" d="M68.8,53.3L49.3,67.8l43.2,38.8l0.1-0.1l0.4,0l43.3-38.4l-18.7-14.7L68.8,53.3z M94,100L57.4,67.1L72,56.3
		l43,0.1l15.4,11.8L94,100z"/>
	<path class="st1" d="M75.7,59.2l-13.4,9.9l30.9,27.3l31.2-27.9l-12.5-9.2L75.7,59.2z M93.9,91.6l-25.5-23l10.3-7.7l31.2,0l9.9,8.2
		L93.9,91.6z"/>
	<path class="st1" d="M82.3,63.4l-9.2,6.5l20,17.9l20.6-18.1l-8.3-6.3L82.3,63.4z M93.6,84.6L77.8,70.4l7-5.4l19.2,0l6,5L93.6,84.6z
		"/>
	<polygon class="st1" points="105.5,128.8 111.9,123.1 111.9,107.2 105.6,112.5 	"/>
	<polygon class="st1" points="73.2,128.7 79.5,123.1 79.5,107.1 73.2,112.5 	"/>
	<path class="st1" d="M92.5,106.6l-12,11.4l0,10.7l12.8,0l11.1-11l0-5.4l-5.1,0l6-5.8l-12.3,0l-0.3,0.3L92.5,106.6z M99,112.3
		l-6.7,5.5l6.3,0l0,5.3l-12,0l0-10.9l0.6,0L99,112.3z"/>
	<path class="st1" d="M73,13.3l0.4-0.7l0.4-0.7l0.5-0.9l0.4-0.7l4.7-7.8l6.8,6L87,9l0.8,0.7l0.7,0.6l0.7,0.6l3.8,3.3l3.8-3.3
		l0.7-0.6L98,9.7L98.8,9l0.6-0.5l6.8-6l4.6,7.8l0.4,0.7l0.5,0.9l0.4,0.7l0.4,0.8l2.6,4.3l4.6-2l0.8-0.3l0.8-0.3l1-0.4l0.8-0.3
		l8.3-3.6l2,8.9l0.2,0.8l0.2,1l0.2,0.9l0.2,0.9l1.1,4.9l5-0.5l0.9-0.1l0.9-0.1l1.1-0.1l0.8-0.1l9-0.8l-0.8,9l-0.1,0.8l-0.1,1.1
		l-0.1,0.9l-0.1,0.9l-0.5,5l4.9,1.1l0.8,0.2l0.9,0.2l1,0.2l0.8,0.2l8.8,2l-3.6,8.3l-0.3,0.8l-0.4,1l-0.3,0.8l-0.3,0.8l-2,4.6
		l4.3,2.6l0.7,0.4l0.8,0.4l0.9,0.5l0.7,0.4l7.8,4.7l-6,6.8l-0.5,0.6l-0.7,0.8l-0.6,0.7l-0.6,0.7l-3.3,3.8l3.3,3.8l0.6,0.7l0.6,0.7
		l0.7,0.8l0.5,0.6l6,6.8l-7.8,4.6l-0.7,0.4l-0.9,0.5l-0.8,0.4l-0.7,0.4l-4.3,2.6l2,4.6l0.3,0.8l0.3,0.8l0.4,1l0.3,0.8l3.6,8.3
		l-8.8,2l-0.8,0.2l-1,0.2l-0.9,0.2l-0.8,0.2l-4.9,1.1l0.5,5l0.1,0.9l0.1,0.9l0.1,1.1l0.1,0.8l0.8,9l-9-0.8l-0.8-0.1l-1.1-0.1
		l-0.9-0.1l-0.9-0.1l-5-0.5l-1.1,4.9l-0.2,0.8l-0.2,0.9l-0.2,1l-0.2,0.8l-2,8.8l-8.3-3.6l-0.8-0.3l-1-0.4l-0.8-0.3l-0.8-0.3l-4.6-2
		l-2.6,4.3l-0.4,0.7l-0.4,0.8l-0.5,0.9l-0.4,0.7l-4.7,7.8l-6.8-6l-0.6-0.5l-0.8-0.7l-0.7-0.6l-0.7-0.6l-3.8-3.3l-3.8,3.3l-0.7,0.6
		l-0.7,0.6l-0.8,0.7l-0.6,0.5l-6.8,6l-4.6-7.8l-0.4-0.7l-0.5-0.9l-0.4-0.8l-0.4-0.7l-2.6-4.3l-4.6,2l-0.8,0.3l-0.8,0.3l-1,0.4
		l-0.8,0.3l-8.3,3.6l-2-8.9l-0.2-0.8l-0.2-1l-0.2-0.9l-0.2-0.9l-1.1-4.9l-5,0.5l-0.9,0.1l-0.9,0.1l-1.1,0.1l-0.8,0.1l-9,0.8l0.8-9
		l0.1-0.8l0.1-1.1l0.1-0.9l0.1-0.9l0.5-5l-4.9-1.1l-0.9-0.2l-0.9-0.2l-1-0.2l-0.8-0.2l-8.8-2l3.6-8.3l0.3-0.8l0.4-1l0.3-0.8l0.3-0.8
		l2-4.6l-4.3-2.6l-0.7-0.4l-0.8-0.4L17,105l-0.7-0.4l-7.8-4.7l6-6.8l0.5-0.6l0.7-0.8l0.6-0.7l0.6-0.7l3.3-3.8l-3.3-3.8l-0.6-0.7
		l-0.6-0.7l-0.7-0.8L14.5,80l-6-6.8l7.8-4.6l0.7-0.4l0.9-0.5l0.8-0.4l0.8-0.4l4.3-2.6l-2-4.6l-0.3-0.8l-0.3-0.8l-0.4-1l-0.3-0.8
		l-3.6-8.3l8.8-2l0.8-0.2l1-0.2l0.9-0.2l0.9-0.2l4.9-1.1l-0.5-5l-0.1-0.9l-0.1-0.9l-0.1-1.1l-0.1-0.8l-0.8-9l9,0.8l0.8,0.1l1.1,0.1
		l0.9,0.1l0.9,0.1l5,0.5l1.1-4.9l0.2-0.9l0.2-0.9l0.2-1l0.2-0.8l2-8.8l8.3,3.6l0.8,0.3l1,0.4l0.8,0.3l0.8,0.3l4.6,2L73,13.3z
		 M79.3,0.9L74,9.7l-0.4,0.7L66.7,6l-3.1,7.6l-0.8-0.3l-9.4-4.1l-2.3,10L51,20L43,18l-0.6,8.2l-0.8-0.1l-10.2-1l0.9,10.2l0.1,0.8
		l-8.2,0.5l2,7.9l-0.8,0.2l-10,2.3l4,9.5l0.3,0.8l-7.6,3l4.4,6.9l-0.7,0.4L7,73l6.8,7.7l0.5,0.6L8,86.5l6.3,5.3l-0.5,0.6l-6.8,7.7
		l8.8,5.3l0.7,0.4l-4.4,6.9l7.6,3.1l-0.3,0.8l-4.1,9.4l10,2.3l0.8,0.2l-2,7.9l8.2,0.6l-0.1,0.8L31.3,148l10.2-0.9l0.8-0.1l0.5,8.2
		l7.9-2L51,154l2.3,10l9.5-4l0.8-0.3l3,7.6l6.9-4.4l0.4,0.7l5.2,8.8l7.7-6.8l0.6-0.5l5.2,6.3l5.3-6.3l0.6,0.5l7.7,6.8l5.3-8.8
		l0.4-0.7l6.9,4.4l3.1-7.6l0.8,0.3l9.4,4.1l2.3-10l0.2-0.8l7.9,2l0.6-8.2l0.8,0.1l10.2,1l-0.9-10.2l-0.1-0.8l8.2-0.5l-2-7.9l0.8-0.2
		l10-2.3l-4-9.5l-0.3-0.8l7.6-3l-4.4-6.9l0.7-0.4l8.8-5.2l-6.8-7.7l-0.5-0.6l6.3-5.2l-6.3-5.3l0.5-0.6l6.8-7.7l-8.8-5.3l-0.7-0.4
		l4.4-6.9l-7.6-3.1l0.3-0.8l4.1-9.4l-10-2.3l-0.8-0.2l2-7.9l-8.2-0.6l0.1-0.8l1-10.2l-10.2,0.9l-0.8,0.1l-0.5-8.2l-7.9,2l-0.2-0.8
		l-2.3-10l-9.5,4l-0.8,0.3l-3-7.6l-6.9,4.4l-0.4-0.7l-5.2-8.8l-7.7,6.8l-0.6,0.5l-5.2-6.3l-5.2,6.3L87,7.6L79.3,0.9z"/>
	<g>
		<g>
			<defs>
				<rect id="SVGID_1_" x="6.9" y="0.9" width="171.6" height="171.6"/>
			</defs>
			<clipPath id="SVGID_2_">
				<use xlink:href="#SVGID_1_"  style="overflow:visible;"/>
			</clipPath>
			<path class="st2" d="M170,94.2l-0.5-0.6l-0.7-0.8l-0.6-0.7l-0.6-0.7l-4.1-4.7l4.1-4.7l0.6-0.7l0.6-0.7l0.7-0.8l0.5-0.6l4.9-5.6
				l-6.4-3.8l-0.7-0.4l-0.9-0.5l-0.7-0.4l-0.7-0.4l-5.3-3.2l2.5-5.7l0.3-0.8l0.3-0.8l0.4-1l0.3-0.8l3-6.9l-7.3-1.7l-0.8-0.2l-1-0.2
				l-0.9-0.2l-0.8-0.2l-6-1.4l0.6-6.2l0.1-0.9l0.1-0.9l0.1-1.1l0.1-0.8l0.7-7.4l-7.4,0.7l-0.8,0.1l-1.1,0.1l-0.9,0.1l-0.9,0.1
				l-6.2,0.6l-1.4-6.1l-0.2-0.9l-0.2-0.9l-0.2-1l-0.2-0.8l-1.6-7.3l-6.9,2.9l-0.8,0.3l-1,0.4l-0.8,0.3l-0.8,0.3l-5.7,2.4l-3.2-5.3
				l-0.4-0.7l-0.4-0.8l-0.5-0.9l-0.4-0.7l-3.8-6.4l-5.6,4.9L99.7,10l-0.8,0.7l-0.7,0.6l-0.7,0.6L92.9,16l-4.7-4.1l-0.7-0.6l-0.7-0.6
				L86.1,10l-0.6-0.5l-5.6-4.9L76.1,11l-0.4,0.7l-0.5,0.9l-0.4,0.7l-0.4,0.8L71,19.4l-5.7-2.5l-0.8-0.3l-0.8-0.3l-1-0.4L62,15.5
				l-6.9-3l-1.7,7.3l-0.2,0.8l-0.2,1l-0.2,0.8l-0.2,0.9l-1.4,6l-6.2-0.6l-0.9-0.1l-0.9-0.1l-1.1-0.1l-0.8-0.1l-7.4-0.7l0.7,7.4
				l0.1,0.8l0.1,1.1L35,38l0.1,0.9l0.6,6.2l-6.1,1.4l-0.9,0.2l-0.9,0.2l-1,0.2L26,47.2l-7.3,1.6l2.9,6.9l0.3,0.8l0.4,1l0.3,0.8
				l0.3,0.8l2.4,5.7l-5.3,3.2l-0.8,0.4l-0.8,0.4l-0.9,0.5l-0.7,0.4l-6.4,3.8l4.9,5.6l0.5,0.6l0.7,0.8l0.6,0.7l0.6,0.7l4.1,4.7
				L18,91.2l-0.6,0.7l-0.6,0.7l-0.7,0.8L15.6,94l-4.9,5.6l6.4,3.8l0.7,0.4l0.9,0.5l0.8,0.4l0.7,0.4l5.3,3.2l-2.5,5.7l-0.3,0.8
				l-0.3,0.8l-0.4,1l-0.3,0.8l-3,6.9l7.3,1.7l0.8,0.2l1,0.2l0.9,0.2l0.9,0.2l6,1.4l-0.6,6.2l-0.1,0.9l-0.1,0.9l-0.1,1.1l-0.1,0.8
				l-0.7,7.4l7.4-0.7l0.8-0.1l1.1-0.1l0.9-0.1l0.9-0.1l6.2-0.6l1.4,6.1l0.2,0.9l0.2,0.9l0.2,1l0.2,0.8l1.6,7.3l6.9-2.9l0.8-0.3
				l1-0.4l0.8-0.3l0.8-0.3l5.7-2.4l3.2,5.3l0.4,0.7l0.4,0.8l0.5,0.9l0.4,0.7l3.8,6.4l5.6-4.9l0.6-0.5l0.8-0.7l0.7-0.6l0.7-0.6
				l4.7-4.1l4.7,4.1l0.7,0.6l0.7,0.6l0.8,0.7l0.6,0.5l5.6,4.9l3.8-6.4l0.4-0.7l0.5-0.9l0.4-0.7l0.4-0.8l3.2-5.3l5.7,2.5l0.8,0.3
				l0.8,0.3l1,0.4l0.8,0.3l6.9,3l1.7-7.3l0.2-0.8l0.2-1l0.2-0.9l0.2-0.9l1.4-6l6.2,0.6l0.9,0.1l0.9,0.1l1.1,0.1l0.8,0.1l7.4,0.7
				l-0.7-7.4l-0.1-0.8l-0.1-1.1l-0.1-0.9l-0.1-0.9l-0.6-6.2l6.1-1.4l0.8-0.2l0.9-0.2l1-0.2l0.8-0.2l7.3-1.6l-2.9-6.9l-0.3-0.8
				l-0.4-1l-0.3-0.8l-0.3-0.8l-2.4-5.7l5.3-3.2l0.7-0.4l0.8-0.4l0.9-0.5l0.7-0.4l6.4-3.8L170,94.2z M24.5,86.6
				c0.1-37.7,30.7-68.2,68.4-68.2c37.7,0.1,68.2,30.7,68.2,68.4c-0.1,37.7-30.7,68.2-68.4,68.2C55,154.9,24.5,124.3,24.5,86.6"/>
		</g>
		<g>
			<defs>
				<rect id="SVGID_3_" x="6.9" y="0.9" width="171.6" height="171.6"/>
			</defs>
			<clipPath id="SVGID_4_">
				<use xlink:href="#SVGID_3_"  style="overflow:visible;"/>
			</clipPath>
			<path class="st3" d="M158.1,86.8c0.1-36-29.2-65.4-65.2-65.4c-36-0.1-65.4,29.2-65.4,65.2c-0.1,36,29.2,65.4,65.2,65.4
				C128.7,152,158,122.8,158.1,86.8 M28.5,86.6c0.1-35.4,28.9-64.2,64.4-64.2c35.4,0.1,64.2,28.9,64.2,64.4
				C157,122.2,128.1,151,92.7,151C57.2,150.9,28.4,122,28.5,86.6"/>
		</g>
		<g>
			<defs>
				<rect id="SVGID_5_" x="6.9" y="0.9" width="171.6" height="171.6"/>
			</defs>
			<clipPath id="SVGID_6_">
				<use xlink:href="#SVGID_5_"  style="overflow:visible;"/>
			</clipPath>
			<polygon class="st4" points="92.6,106.5 92.5,106.6 92.7,106.8 93,106.5 			"/>
		</g>
	</g>
	<g>
		<path class="st5" d="M83.1,145.2h-1.7v-7.7h-1.6v-1.3h3.3V145.2z"/>
		<path class="st5" d="M88.8,145.2h-1.8l2-3.1c-0.2,0-0.3,0.1-0.4,0.1c-0.1,0-0.2,0-0.3,0c-0.7,0-1.4-0.3-1.9-0.9
			c-0.5-0.6-0.8-1.3-0.8-2.2c0-0.3,0.1-0.7,0.2-1.1c0.1-0.4,0.3-0.7,0.6-1c0.3-0.4,0.7-0.7,1.1-0.8c0.4-0.2,0.8-0.3,1.3-0.3
			c0.4,0,0.8,0.1,1.2,0.2c0.4,0.2,0.7,0.4,1,0.7c0.3,0.3,0.5,0.6,0.7,1c0.2,0.4,0.2,0.8,0.2,1.1c0,0.4-0.1,0.9-0.3,1.3
			c-0.2,0.5-0.5,1-1,1.8L88.8,145.2z M90.3,139.3c0-0.4-0.1-0.8-0.4-1.1c-0.3-0.3-0.6-0.5-1-0.5c-0.4,0-0.8,0.1-1.1,0.4
			c-0.3,0.3-0.4,0.7-0.4,1.1c0,0.5,0.1,0.8,0.4,1.1c0.3,0.3,0.6,0.4,1,0.4c0.4,0,0.8-0.1,1.1-0.4S90.3,139.7,90.3,139.3z"/>
		<path class="st5" d="M95.2,145.2h-1.8l3.4-7.4h-3.5v-1.6h5.1v1.7L95.2,145.2z"/>
	</g>
	<g>
		<path class="st5" d="M104.7,136.2v1.6h-3.1l-0.3,1.5c0.2-0.1,0.4-0.2,0.6-0.2c0.2-0.1,0.4-0.1,0.6-0.1c0.8,0,1.5,0.3,2.1,0.9
			c0.6,0.6,0.9,1.4,0.9,2.2c0,0.4-0.1,0.8-0.2,1.1c-0.1,0.4-0.3,0.7-0.6,1c-0.3,0.4-0.7,0.6-1.1,0.8c-0.4,0.2-0.8,0.3-1.3,0.3
			c-0.9,0-1.6-0.3-2.2-0.8c-0.6-0.6-0.9-1.3-1-2.2h1.7c0,0.4,0.2,0.7,0.5,1c0.3,0.3,0.6,0.4,1,0.4c0.4,0,0.8-0.2,1-0.5
			c0.3-0.3,0.4-0.7,0.4-1.2c0-0.5-0.1-0.8-0.4-1.1c-0.3-0.3-0.6-0.4-1.1-0.4c-0.3,0-0.5,0.1-0.7,0.2c-0.2,0.1-0.4,0.3-0.5,0.5
			l-1.5-0.3l0.9-4.7L104.7,136.2L104.7,136.2z"/>
	</g>
	<g>
		<path class="st5" d="M64.7,128.6l-5.1,7.3l-1.4-1l5.1-7.3L64.7,128.6z"/>
	</g>
	<g>
		<path class="st5" d="M61.4,126.4l-6,6.6l-1.4-1.3l1.5-7.2l0.1-0.3l-4.5,4.9L50,128l6-6.6l1.4,1.3l-1.5,7.2l-0.1,0.3l4.4-4.9
			L61.4,126.4z"/>
	</g>
	<g>
		<path class="st5" d="M54,119l-5.7,4.6l1.1,1.3l-1.2,1l-3.2-3.9l1.2-1l1.1,1.3l5.7-4.6L54,119z"/>
	</g>
	<g>
		<path class="st5" d="M51,115.2l-7.5,4.7l-2.6-4.2l1.4-0.8l1.7,2.7l1.7-1.1l-1.6-2.6l1.4-0.8l1.6,2.6l1.7-1.1l-1.7-2.7l1.4-0.8
			L51,115.2z"/>
	</g>
	<g>
		<path class="st5" d="M47.5,109.4l-8.1,3.5l-1.1-2.4c-0.2-0.5-0.4-1-0.4-1.3c-0.1-0.4,0-0.7,0.1-1.1c0.1-0.4,0.3-0.8,0.6-1.1
			c0.3-0.3,0.6-0.6,1-0.7c0.3-0.1,0.7-0.2,1-0.2c0.4,0,0.7,0,1,0.1c0.3,0.1,0.5,0.2,0.7,0.4c0.2,0.2,0.5,0.4,0.7,0.8l2-3.6l0.8,1.9
			l-2.2,3.5l3.1-1.4L47.5,109.4z M42.6,109.7l-0.4-0.8c-0.2-0.5-0.5-0.9-0.8-1.1c-0.3-0.2-0.7-0.2-1.1,0c-0.4,0.2-0.6,0.4-0.7,0.9
			c0,0.2-0.1,0.4,0,0.6c0,0.2,0.1,0.4,0.2,0.7l0.4,0.9L42.6,109.7z"/>
	</g>
	<g>
		<path class="st5" d="M44.5,102.3l-8.6,2.1l-0.5-1.8l5.3-5.1l0.3-0.1l-6.4,1.6l-0.4-1.7l8.6-2.1l0.5,1.8l-5.2,5.1l-0.3,0.2l6.4-1.6
			L44.5,102.3z"/>
	</g>
	<g>
		<path class="st5" d="M42.5,93.8l-9.1-3.3l-0.1-1.3l8.7-4.3l0.1,1.9l-2.2,1.1l0.2,3.2l2.3,0.9L42.5,93.8z M38.6,90.7l-0.1-2.2
			l-2.7,1.2l-0.3,0.1l0.3,0L38.6,90.7z"/>
	</g>
	<g>
		<path class="st5" d="M42.3,82.5l-7.2-0.7l-0.2,1.7l-1.6-0.2l0.5-5l1.6,0.2l-0.2,1.7l7.2,0.7L42.3,82.5z"/>
	</g>
	<g>
		<path class="st5" d="M43,77.8l-8.7-1.7l0.3-1.7l8.7,1.7L43,77.8z"/>
	</g>
	<g>
		<path class="st5" d="M36.6,66.8c0.3-0.8,0.8-1.5,1.4-2.1c0.6-0.6,1.4-0.9,2.2-1.1c0.8-0.2,1.6-0.1,2.4,0.2c0.8,0.3,1.4,0.7,2,1.4
			c0.5,0.6,0.9,1.4,1,2.2c0.1,0.8,0.1,1.6-0.2,2.5c-0.3,0.8-0.8,1.5-1.4,2c-0.6,0.6-1.4,0.9-2.2,1.1c-0.8,0.2-1.6,0.1-2.4-0.2
			c-0.8-0.3-1.4-0.7-2-1.4c-0.5-0.6-0.9-1.4-1-2.2C36.2,68.4,36.3,67.6,36.6,66.8z M38.1,67.2c-0.2,0.5-0.2,1.1-0.2,1.6
			c0.1,0.5,0.3,1,0.6,1.4c0.3,0.4,0.8,0.7,1.3,0.9c0.5,0.2,1,0.2,1.6,0.1c0.5-0.1,1-0.3,1.4-0.7c0.4-0.4,0.7-0.8,0.9-1.3
			c0.2-0.5,0.2-1,0.1-1.6c-0.1-0.5-0.3-1-0.7-1.4c-0.4-0.4-0.8-0.7-1.3-0.9c-0.5-0.2-1-0.2-1.5-0.1c-0.5,0.1-1,0.3-1.4,0.7
			C38.6,66.3,38.3,66.7,38.1,67.2z"/>
	</g>
	<g>
		<path class="st5" d="M47.5,63.8l-7.6-4.6l1-1.6l7.3,0.1l0.3,0.1l-5.7-3.4l0.9-1.5l7.6,4.6l-1,1.6l-7.3-0.1L42.8,59l5.7,3.4
			L47.5,63.8z"/>
	</g>
	<g>
		<path class="st5" d="M52.2,56.3l-4.1-8.7l0.9-1l9.2,3L56.9,51l-2.4-0.8l-2.2,2.4l1,2.3L52.2,56.3z M51.6,51.4l1.5-1.7l-2.8-1
			l-0.3-0.2l0.2,0.2L51.6,51.4z"/>
	</g>
	<g>
		<path class="st5" d="M59.2,48.8L53.6,42l1.3-1.1l4.6,5.6l2.2-1.8l1,1.2L59.2,48.8z"/>
	</g>
	<text transform="matrix(0.8588 -0.5703 0.5538 0.8327 63.2683 45.5864)" class="st5 st6 st7"> </text>
	<g>
		<path class="st5" d="M72.5,33.5l-1.8,0.9c-0.3-0.1-0.5-0.2-0.7-0.3c-0.2,0-0.4-0.1-0.6-0.1c-0.5,0-1,0.1-1.4,0.3
			c-0.5,0.2-0.9,0.6-1.2,1c-0.3,0.5-0.5,0.9-0.6,1.5c-0.1,0.5,0,1.1,0.3,1.5c0.2,0.5,0.6,0.9,1,1.2c0.5,0.3,1,0.5,1.6,0.5
			c0.6,0,1.1-0.1,1.6-0.3c0.7-0.3,1.2-0.9,1.5-1.6c0.1-0.3,0.2-0.6,0.2-1l-3.5,1.6l-0.7-1.4l5.4-2.5l0.1,0.2
			c0.4,0.7,0.5,1.5,0.4,2.3c-0.1,0.8-0.4,1.6-0.9,2.3c-0.5,0.7-1.2,1.2-2,1.6c-0.8,0.4-1.6,0.5-2.5,0.5c-0.9-0.1-1.6-0.3-2.3-0.8
			c-0.7-0.5-1.2-1.1-1.6-1.8c-0.4-0.8-0.5-1.6-0.4-2.4c0.1-0.8,0.4-1.6,0.9-2.3c0.5-0.7,1.1-1.2,1.9-1.6c0.4-0.2,0.8-0.3,1.2-0.4
			c0.4-0.1,0.9-0.1,1.3-0.1c0.4,0,0.9,0.1,1.3,0.3C71.6,32.8,72,33.1,72.5,33.5z"/>
	</g>
	<g>
		<path class="st5" d="M77.2,38.6L74.8,30l4.7-1.3l0.4,1.5l-3.1,0.8l0.5,2l3-0.8l0.4,1.5l-3,0.8l0.5,2l3.1-0.8l0.4,1.5L77.2,38.6z"
			/>
	</g>
	<g>
		<path class="st5" d="M83.7,36.8L83,28l2.3-0.2l3,6.3l0.1,0.5l0.1-0.5l1.7-6.7l2.3-0.2l0.8,8.8l-1.7,0.1L91,29.5l-1.8,6.8l-1.4,0.1
			L84.8,30l0.6,6.6L83.7,36.8z"/>
	</g>
	<g>
		<path class="st5" d="M100.5,27.7c0.9,0.1,1.7,0.4,2.3,0.9c0.7,0.5,1.2,1.1,1.5,1.9c0.3,0.8,0.4,1.6,0.3,2.4
			c-0.1,0.8-0.4,1.6-0.9,2.2c-0.5,0.6-1.2,1.1-1.9,1.4c-0.8,0.3-1.6,0.4-2.4,0.3c-0.8-0.1-1.6-0.4-2.3-0.9c-0.7-0.5-1.2-1.1-1.5-1.9
			c-0.3-0.8-0.4-1.6-0.3-2.4c0.1-0.8,0.4-1.6,0.9-2.2c0.5-0.7,1.2-1.1,1.9-1.5C98.9,27.6,99.7,27.5,100.5,27.7z M100.5,29.2
			c-0.6-0.1-1.1,0-1.6,0.2c-0.5,0.2-0.9,0.5-1.3,0.9c-0.3,0.4-0.5,0.9-0.6,1.5c-0.1,0.5,0,1.1,0.2,1.6c0.2,0.5,0.5,0.9,1,1.3
			c0.4,0.3,0.9,0.5,1.5,0.6c0.5,0.1,1.1,0,1.6-0.2c0.5-0.2,0.9-0.5,1.3-1c0.3-0.4,0.5-0.9,0.6-1.4c0.1-0.5,0-1-0.2-1.5
			c-0.2-0.5-0.5-0.9-0.9-1.2C101.5,29.5,101,29.3,100.5,29.2z"/>
	</g>
	<g>
		<path class="st5" d="M105.8,37.9l2.6-8.5l1.6,0.5l-2.1,7l2.7,0.8l-0.5,1.5L105.8,37.9z"/>
	</g>
	<g>
		<path class="st5" d="M119.2,33.4c0.8,0.4,1.4,0.9,1.9,1.6c0.5,0.7,0.8,1.5,0.8,2.3s-0.1,1.6-0.5,2.4c-0.4,0.7-0.9,1.3-1.6,1.8
			c-0.7,0.4-1.5,0.7-2.3,0.7c-0.8,0-1.6-0.1-2.4-0.5c-0.8-0.4-1.4-0.9-1.9-1.6c-0.5-0.7-0.7-1.5-0.8-2.3c-0.1-0.8,0.1-1.6,0.5-2.4
			c0.4-0.7,0.9-1.3,1.6-1.8c0.7-0.4,1.5-0.7,2.3-0.8C117.7,32.8,118.5,33,119.2,33.4z M118.6,34.9c-0.5-0.3-1-0.4-1.6-0.4
			c-0.5,0-1,0.2-1.5,0.5c-0.5,0.3-0.8,0.7-1.1,1.2c-0.2,0.5-0.3,1-0.3,1.5c0,0.5,0.2,1,0.5,1.5c0.3,0.5,0.7,0.8,1.2,1.1
			c0.5,0.2,1,0.3,1.6,0.3c0.5,0,1-0.2,1.5-0.5c0.5-0.3,0.8-0.7,1.1-1.2c0.2-0.5,0.3-1,0.3-1.5c0-0.5-0.2-1-0.5-1.5
			C119.5,35.4,119.1,35.1,118.6,34.9z"/>
	</g>
	<g>
		<path class="st5" d="M131.8,45.2l-1.6-1.3c0-0.3,0-0.5-0.1-0.7c0-0.2-0.1-0.4-0.2-0.6c-0.2-0.5-0.5-0.8-0.9-1.1
			c-0.4-0.4-0.9-0.6-1.5-0.7c-0.5-0.1-1.1,0-1.6,0.1c-0.5,0.2-0.9,0.5-1.3,0.9c-0.3,0.4-0.5,0.9-0.6,1.5c-0.1,0.6,0,1.1,0.2,1.6
			c0.2,0.5,0.5,1,1,1.3c0.6,0.5,1.3,0.7,2.1,0.7c0.3,0,0.6-0.1,1-0.2l-3-2.4l1-1.2l4.7,3.7l-0.1,0.1c-0.5,0.6-1.2,1.1-1.9,1.4
			c-0.8,0.3-1.6,0.3-2.4,0.2c-0.8-0.1-1.6-0.5-2.3-1c-0.7-0.6-1.2-1.2-1.5-2c-0.3-0.8-0.4-1.6-0.3-2.4c0.1-0.8,0.4-1.6,0.9-2.2
			c0.5-0.7,1.2-1.1,2-1.4c0.8-0.3,1.6-0.4,2.5-0.2c0.8,0.1,1.6,0.5,2.3,1c0.3,0.3,0.6,0.6,0.9,0.9c0.3,0.4,0.5,0.7,0.6,1.1
			c0.2,0.4,0.3,0.8,0.3,1.3C132,44,131.9,44.6,131.8,45.2z"/>
	</g>
	<g>
		<path class="st5" d="M129.2,51.7l6.5-6l1.2,1.2l-6.5,6L129.2,51.7z"/>
	</g>
	<g>
		<path class="st5" d="M137.7,58.5l1.1,1.6c-0.4,0.1-0.7,0.1-0.9,0.1c-0.2,0-0.4,0-0.7-0.1c-0.4-0.1-0.8-0.2-1.2-0.4
			c-0.4-0.2-0.7-0.4-1-0.7c-0.3-0.3-0.6-0.6-0.8-0.9c-0.5-0.7-0.8-1.5-0.8-2.3c-0.1-0.8,0.1-1.6,0.4-2.4c0.3-0.8,0.9-1.4,1.5-1.9
			c0.7-0.5,1.4-0.7,2.3-0.8c0.8-0.1,1.6,0.1,2.4,0.4c0.8,0.4,1.4,0.9,1.9,1.6c0.4,0.5,0.6,1.1,0.8,1.7c0.1,0.6,0.2,1.2,0.1,1.9
			c0,0.3-0.1,0.5-0.2,0.7c-0.1,0.2-0.2,0.5-0.4,0.8l-1.1-1.6c0.1-0.3,0.1-0.5,0.1-0.7c0-0.2,0-0.4-0.1-0.6c-0.1-0.5-0.3-0.9-0.5-1.3
			c-0.3-0.4-0.7-0.8-1.2-1s-1-0.3-1.5-0.3c-0.5,0-1,0.2-1.5,0.5c-0.4,0.3-0.8,0.7-1,1.2c-0.2,0.5-0.3,1-0.3,1.5c0,0.5,0.2,1,0.5,1.5
			c0.2,0.3,0.5,0.6,0.8,0.8c0.2,0.1,0.4,0.2,0.6,0.3C137.1,58.4,137.4,58.4,137.7,58.5z"/>
	</g>
	<g>
		<path class="st5" d="M137.2,62.1l9.7-0.1l0.5,1.2l-6.6,7.1l-0.8-1.7l1.7-1.8l-1.3-3l-2.5,0L137.2,62.1z M141.9,63.6l0.9,2l2.1-2.1
			l0.3-0.2l-0.3,0.1L141.9,63.6z"/>
	</g>
	<g>
		<path class="st5" d="M141,71.7l8.6-2.3L150,71l-7,1.9l0.7,2.7l-1.5,0.4L141,71.7z"/>
	</g>
	<text transform="matrix(0.1699 1.0147 -0.9862 0.1654 142.3553 76.6727)" class="st5 st6 st8"> </text>
	<g>
		<path class="st5" d="M143.1,81.5l8.8-0.8l0.1,1.7l-8.8,0.8L143.1,81.5z"/>
	</g>
	<g>
		<path class="st5" d="M143.4,85.5l8.9,0.4l-0.1,1.9l-6.5,3.4l-0.3,0.1l6.6,0.3l-0.1,1.7l-8.9-0.4l0.1-1.9l6.5-3.4l0.3-0.1l-6.6-0.3
			L143.4,85.5z"/>
	</g>
	<g>
		<path class="st5" d="M145.2,94.8l-0.4,1.7c-0.3-0.1-0.6,0-0.9,0.2c-0.2,0.2-0.4,0.4-0.5,0.8c-0.1,0.3,0,0.6,0.1,0.9
			c0.2,0.3,0.4,0.4,0.7,0.5c0.4,0.1,0.7,0,1-0.2c0.2-0.2,0.5-0.5,0.8-1c0.1-0.2,0.2-0.3,0.2-0.3c0.2-0.3,0.3-0.5,0.5-0.7
			c0.3-0.3,0.6-0.5,1.1-0.7c0.4-0.1,0.8-0.1,1.2-0.1c0.4,0.1,0.8,0.3,1.2,0.6c0.3,0.3,0.6,0.7,0.7,1.1c0.1,0.4,0.1,0.9,0,1.4
			c-0.1,0.5-0.3,0.9-0.6,1.2c-0.3,0.3-0.7,0.6-1.1,0.7c-0.4,0.2-0.9,0.2-1.4,0.1l0.4-1.7c0.3,0,0.5,0,0.7-0.2
			c0.2-0.1,0.3-0.4,0.4-0.6c0.1-0.3,0-0.5-0.1-0.7c-0.1-0.2-0.3-0.3-0.6-0.4c-0.3-0.1-0.5,0-0.7,0.1c-0.2,0.1-0.4,0.4-0.6,0.8
			l-0.2,0.4c-0.3,0.6-0.7,1-1,1.2c-0.6,0.5-1.3,0.7-2.1,0.5c-0.5-0.1-1-0.3-1.3-0.7c-0.4-0.3-0.6-0.8-0.8-1.3
			c-0.2-0.5-0.2-1-0.1-1.5c0.2-0.8,0.6-1.5,1.3-1.9c0.3-0.2,0.6-0.3,1-0.4C144.5,94.8,144.8,94.8,145.2,94.8z"/>
	</g>
	<g>
		<path class="st5" d="M140.7,102.6l6.9,2.4l0.6-1.6l1.5,0.5l-1.7,4.8l-1.5-0.5l0.6-1.6l-6.9-2.4L140.7,102.6z"/>
	</g>
	<g>
		<path class="st5" d="M139,107.1l8,3.7l-0.7,1.5l-8-3.7L139,107.1z"/>
	</g>
	<g>
		<path class="st5" d="M136.7,111.5l6.2,3.8l0.9-1.4l1.4,0.8l-2.6,4.3l-1.4-0.8l0.9-1.5l-6.2-3.8L136.7,111.5z"/>
	</g>
	<g>
		<path class="st5" d="M141.3,121.1l-1.1,1.3l-4.3-3.4c-0.3-0.2-0.5-0.4-0.6-0.4c-0.1-0.1-0.3-0.1-0.4-0.2c-0.3-0.1-0.5,0-0.7,0
			c-0.2,0.1-0.4,0.2-0.6,0.4c-0.1,0.2-0.2,0.4-0.3,0.6c0,0.2,0,0.5,0.1,0.7c0.1,0.2,0.2,0.3,0.3,0.5c0.1,0.1,0.3,0.3,0.6,0.5
			l4.3,3.4l-1.1,1.3l-4.3-3.4c-0.5-0.4-0.8-0.7-1-1c-0.2-0.3-0.4-0.6-0.4-1c-0.1-0.4-0.1-0.9,0-1.4c0.1-0.5,0.3-0.9,0.6-1.2
			c0.3-0.3,0.6-0.6,1-0.8c0.4-0.2,0.8-0.3,1.3-0.4c0.4,0,0.8,0,1.1,0.2c0.4,0.1,0.8,0.4,1.2,0.8L141.3,121.1z"/>
	</g>
	<g>
		<path class="st5" d="M128.2,122.7l5,5.3l1.2-1.2l1.1,1.2l-3.7,3.5l-1.1-1.2l1.2-1.2l-5-5.3L128.2,122.7z"/>
	</g>
	<g>
		<path class="st5" d="M124.7,125.9l5.3,7.1l-4,2.9l-0.9-1.3l2.6-1.9l-1.2-1.6l-2.5,1.8l-0.9-1.3l2.5-1.8l-1.2-1.6l-2.6,1.9
			l-0.9-1.3L124.7,125.9z"/>
	</g>
	<rect x="376.9" y="30.7" class="st0" width="16.2" height="111"/>
</g>
</svg>
